<svg width="77" height="77" viewBox="0 0 77 77" fill="none" xmlns="http://www.w3.org/2000/svg">
<path d="M69.4594 66.1718C69.2481 66.5376 68.9443 66.8414 68.5784 67.0526C68.2125 67.2638 67.7975 67.375 67.375 67.3749H9.62497C9.2028 67.3745 8.78817 67.2629 8.42271 67.0516C8.05726 66.8402 7.75385 66.5364 7.54295 66.1707C7.33205 65.805 7.22108 65.3902 7.22119 64.968C7.2213 64.5458 7.33248 64.1311 7.54357 63.7655C12.1245 55.8459 19.1838 50.1672 27.4222 47.4752C23.3471 45.0493 20.181 41.3527 18.4102 36.9532C16.6393 32.5538 16.3615 27.6946 17.6196 23.122C18.8776 18.5494 21.6018 14.5162 25.374 11.6417C29.1461 8.76722 33.7575 7.21045 38.5 7.21045C43.2425 7.21045 47.8539 8.76722 51.626 11.6417C55.3981 14.5162 58.1224 18.5494 59.3804 23.122C60.6384 27.6946 60.3607 32.5538 58.5898 36.9532C56.8189 41.3527 53.6528 45.0493 49.5777 47.4752C57.8161 50.1672 64.8755 55.8459 69.4564 63.7655C69.668 64.131 69.7797 64.5458 69.7803 64.9682C69.7808 65.3906 69.6701 65.8057 69.4594 66.1718Z" fill="#B5D9AB"/>
</svg>
