<svg width="32" height="32" viewBox="0 0 32 32" fill="none" xmlns="http://www.w3.org/2000/svg">
<path d="M17.6363 13.5456V9.45488C17.6363 9.23789 17.7225 9.02979 17.8759 8.87636C18.0293 8.72293 18.2374 8.63674 18.4544 8.63674C18.6714 8.63674 18.8795 8.72293 19.0329 8.87636C19.1864 9.02979 19.2726 9.23789 19.2726 9.45488V11.5708L23.6026 7.23976C23.7561 7.08624 23.9643 7 24.1814 7C24.3985 7 24.6067 7.08624 24.7602 7.23976C24.9138 7.39328 25 7.60149 25 7.8186C25 8.0357 24.9138 8.24391 24.7602 8.39743L20.4292 12.7274H22.5451C22.7621 12.7274 22.9702 12.8136 23.1236 12.9671C23.2771 13.1205 23.3633 13.3286 23.3633 13.5456C23.3633 13.7626 23.2771 13.9707 23.1236 14.1241C22.9702 14.2775 22.7621 14.3637 22.5451 14.3637H18.4544C18.2374 14.3637 18.0293 14.2775 17.8759 14.1241C17.7225 13.9707 17.6363 13.7626 17.6363 13.5456ZM13.5456 17.6363H9.45488C9.23789 17.6363 9.02979 17.7225 8.87636 17.8759C8.72293 18.0293 8.63674 18.2374 8.63674 18.4544C8.63674 18.6714 8.72293 18.8795 8.87636 19.0329C9.02979 19.1864 9.23789 19.2726 9.45488 19.2726H11.5708L7.23976 23.6026C7.08624 23.7561 7 23.9643 7 24.1814C7 24.3985 7.08624 24.6067 7.23976 24.7602C7.39328 24.9138 7.60149 25 7.8186 25C8.0357 25 8.24391 24.9138 8.39743 24.7602L12.7274 20.4292V22.5451C12.7274 22.7621 12.8136 22.9702 12.9671 23.1236C13.1205 23.2771 13.3286 23.3633 13.5456 23.3633C13.7626 23.3633 13.9707 23.2771 14.1241 23.1236C14.2775 22.9702 14.3637 22.7621 14.3637 22.5451V18.4544C14.3637 18.2374 14.2775 18.0293 14.1241 17.8759C13.9707 17.7225 13.7626 17.6363 13.5456 17.6363ZM20.4292 19.2726H22.5451C22.7621 19.2726 22.9702 19.1864 23.1236 19.0329C23.2771 18.8795 23.3633 18.6714 23.3633 18.4544C23.3633 18.2374 23.2771 18.0293 23.1236 17.8759C22.9702 17.7225 22.7621 17.6363 22.5451 17.6363H18.4544C18.2374 17.6363 18.0293 17.7225 17.8759 17.8759C17.7225 18.0293 17.6363 18.2374 17.6363 18.4544V22.5451C17.6363 22.7621 17.7225 22.9702 17.8759 23.1236C18.0293 23.2771 18.2374 23.3633 18.4544 23.3633C18.6714 23.3633 18.8795 23.2771 19.0329 23.1236C19.1864 22.9702 19.2726 22.7621 19.2726 22.5451V20.4292L23.6026 24.7602C23.6786 24.8363 23.7688 24.8965 23.8681 24.9377C23.9675 24.9788 24.0739 25 24.1814 25C24.2889 25 24.3953 24.9788 24.4947 24.9377C24.594 24.8965 24.6842 24.8363 24.7602 24.7602C24.8363 24.6842 24.8965 24.594 24.9377 24.4947C24.9788 24.3953 25 24.2889 25 24.1814C25 24.0739 24.9788 23.9675 24.9377 23.8681C24.8965 23.7688 24.8363 23.6786 24.7602 23.6026L20.4292 19.2726ZM13.5456 8.63674C13.3286 8.63674 13.1205 8.72293 12.9671 8.87636C12.8136 9.02979 12.7274 9.23789 12.7274 9.45488V11.5708L8.39743 7.23976C8.24391 7.08624 8.0357 7 7.8186 7C7.60149 7 7.39328 7.08624 7.23976 7.23976C7.08624 7.39328 7 7.60149 7 7.8186C7 8.0357 7.08624 8.24391 7.23976 8.39743L11.5708 12.7274H9.45488C9.23789 12.7274 9.02979 12.8136 8.87636 12.9671C8.72293 13.1205 8.63674 13.3286 8.63674 13.5456C8.63674 13.7626 8.72293 13.9707 8.87636 14.1241C9.02979 14.2775 9.23789 14.3637 9.45488 14.3637H13.5456C13.7626 14.3637 13.9707 14.2775 14.1241 14.1241C14.2775 13.9707 14.3637 13.7626 14.3637 13.5456V9.45488C14.3637 9.23789 14.2775 9.02979 14.1241 8.87636C13.9707 8.72293 13.7626 8.63674 13.5456 8.63674Z" fill="currentColor"/>
</svg>
