<svg width="32" height="32" viewBox="0 0 32 32" fill="none" xmlns="http://www.w3.org/2000/svg">
<path d="M9.11827 6.70184C9.0163 6.5869 8.89254 6.49334 8.75415 6.42659C8.61576 6.35983 8.46549 6.32121 8.31206 6.31296C8.15864 6.3047 8.0051 6.32698 7.86034 6.3785C7.71559 6.43003 7.5825 6.50977 7.46879 6.6131C7.35508 6.71644 7.26301 6.84132 7.19792 6.9805C7.13283 7.11968 7.09601 7.2704 7.0896 7.42391C7.08318 7.57743 7.1073 7.73069 7.16056 7.87482C7.21381 8.01894 7.29514 8.15107 7.39984 8.26353L8.94797 9.97132C5.61464 12.191 4.1681 15.3763 4.09843 15.5262C4.03288 15.6749 3.99902 15.8355 3.99902 15.9979C3.99902 16.1604 4.03288 16.321 4.09843 16.4696C4.13423 16.549 4.98184 18.43 6.85508 20.3022C9.3592 22.8035 12.5164 24.1252 15.9997 24.1252C17.6927 24.1346 19.3704 23.8056 20.9344 23.1576L22.8783 25.296C23.0865 25.5196 23.3744 25.6521 23.6797 25.6649C23.985 25.6777 24.283 25.5696 24.5091 25.3641C24.7352 25.1586 24.8712 24.8723 24.8876 24.5672C24.904 24.2621 24.7995 23.9628 24.5968 23.7343L9.11827 6.70184ZM15.9997 21.803C13.1367 21.803 10.6325 20.7647 8.55804 18.7183C7.74203 17.9103 7.03988 16.995 6.47095 15.9974C6.98087 15.0966 8.28905 13.1044 10.5348 11.712L19.2518 21.3018C18.2006 21.6374 17.1033 21.8065 15.9997 21.803ZM27.9011 16.4696C27.8662 16.548 27.0302 18.4048 25.1918 20.2587C25.0865 20.3756 24.9586 20.4698 24.8158 20.5357C24.673 20.6017 24.5183 20.6379 24.3611 20.6422C24.2039 20.6465 24.0474 20.6189 23.9012 20.5609C23.755 20.5029 23.6221 20.4159 23.5106 20.305C23.399 20.1941 23.3112 20.0617 23.2523 19.9158C23.1935 19.77 23.1649 19.6137 23.1683 19.4564C23.1717 19.2992 23.207 19.1443 23.2721 19.0011C23.3372 18.8579 23.4307 18.7294 23.5469 18.6235C24.3192 17.8383 24.9854 16.9555 25.5285 15.9974C24.9599 14.9997 24.2578 14.0843 23.4415 13.2766C21.366 11.2301 18.8628 10.1919 15.9997 10.1919C15.6756 10.1919 15.3515 10.2055 15.0322 10.2326C14.8783 10.2491 14.7227 10.2346 14.5745 10.1901C14.4263 10.1456 14.2884 10.0719 14.1691 9.97334C14.0498 9.8748 13.9514 9.75339 13.8796 9.61627C13.8079 9.47915 13.7643 9.32907 13.7514 9.17485C13.7385 9.02064 13.7566 8.8654 13.8045 8.71827C13.8525 8.57113 13.9294 8.43507 14.0307 8.31807C14.1319 8.20108 14.2556 8.10551 14.3944 8.03699C14.5331 7.96847 14.6842 7.92837 14.8386 7.91907C15.2189 7.88617 15.6127 7.86972 15.9997 7.86972C19.4831 7.86972 22.6403 9.19241 25.1425 11.6936C27.0148 13.5659 27.8624 15.4479 27.8982 15.5262C27.9642 15.6746 27.9985 15.8352 27.999 15.9976C27.9995 16.1601 27.9662 16.3208 27.9011 16.4696Z" fill="currentColor"/>
</svg>
