<svg width="32" height="32" viewBox="0 0 32 32" fill="none" xmlns="http://www.w3.org/2000/svg">
<path d="M31.7632 2.63694C32.0574 2.60786 32.0899 3.11753 31.7957 3.16029C30.0854 3.40657 26.3621 5.13226 25.4898 5.89677C23.6974 7.48221 22.9534 10.0374 22.9534 11.746C22.9534 13.4546 23.4973 21.2792 22.3788 23.7745C19.5089 30.1813 15.0433 29.3261 7.06819 29.3261C7.06819 29.3261 14.1505 25.4164 14.4686 16.0166C14.6585 10.4 15.5974 7.28211 17.6755 5.64878C18.7478 4.8056 20.3401 4.09753 24.2584 4.51142C26.7708 3.8427 29.09 2.90033 31.7632 2.63694Z" fill="currentColor"/>
<path d="M0.103155 3.83332C-0.368887 4.30536 0.693206 10.9157 5.11946 16.8162C6.90672 19.2003 9.00697 21.1792 11.1277 22.3576C12.1019 20.265 12.6363 17.9948 12.6978 15.6874C12.744 14.3328 12.8329 13.122 12.9714 12.0445C12.7502 11.7343 12.5176 11.4288 12.2736 11.1277C7.47967 5.23405 0.575197 3.36128 0.103155 3.83332Z" fill="currentColor"/>
</svg>
