<svg width="32" height="32" viewBox="0 0 32 32" fill="none" xmlns="http://www.w3.org/2000/svg">
<path d="M14.6345 3.62396C11.8201 4.00254 9.39415 5.17315 7.39166 7.11089C5.5137 8.92907 4.26339 11.1806 3.75031 13.6862C3.41656 15.3201 3.41656 17.2827 3.75031 18.9166C4.2335 21.2578 5.36426 23.3948 7.03799 25.1333C9.13512 27.3151 11.6706 28.5854 14.7092 28.9839C15.5262 29.0885 17.5436 29.0586 18.3954 28.9291C21.8624 28.4011 24.6818 26.6576 26.4801 23.9229C26.8985 23.2803 27.4913 22.0847 27.7354 21.3824C28.2435 19.9129 28.4527 18.6875 28.4925 16.9739C28.5175 15.8133 28.4826 15.1856 28.3481 14.294L28.2933 13.9104H22.2709H16.2534V16.4011V18.8917H19.7155C21.6183 18.8917 23.1775 18.9067 23.1775 18.9316C23.1775 18.9515 23.1326 19.1358 23.0778 19.34C22.4203 21.736 20.5971 23.345 17.9321 23.883C17.4539 23.9826 17.2248 23.9976 16.3032 23.9976C15.3219 23.9926 15.1874 23.9826 14.6793 23.8631C11.825 23.1856 9.5934 20.9739 8.88606 18.1196C8.73164 17.482 8.68182 17.0536 8.68182 16.2865C8.68182 14.1794 9.45393 12.3313 10.9682 10.822C11.6905 10.1047 12.2534 9.69619 13.0803 9.30267C14.0268 8.85435 14.7939 8.64513 15.7404 8.58536C17.713 8.46581 19.4216 9.00877 20.8861 10.2292L21.1949 10.4882L23.0131 8.67004L24.8263 6.85684L24.3879 6.48324C23.4813 5.71611 22.759 5.24289 21.708 4.73977C20.6071 4.21176 19.5162 3.87302 18.2709 3.66879C17.5834 3.5592 15.3219 3.52931 14.6345 3.62396Z" fill="currentColor"/>
</svg>
