<svg width="32" height="32" viewBox="0 0 32 32" fill="none" xmlns="http://www.w3.org/2000/svg">
<path d="M21.2219 10.7504C21.2882 10.8165 21.3409 10.8951 21.3768 10.9816C21.4128 11.0681 21.4312 11.1609 21.4312 11.2546C21.4312 11.3483 21.4128 11.4411 21.3768 11.5276C21.3409 11.6142 21.2882 11.6928 21.2219 11.7589L16.9806 16.0001L21.2219 20.2425C21.3556 20.3763 21.4307 20.5577 21.4307 20.7468C21.4307 20.936 21.3556 21.1173 21.2219 21.2511C21.0881 21.3848 20.9067 21.46 20.7176 21.46C20.5284 21.46 20.3471 21.3848 20.2133 21.2511L15.4672 16.505C15.4009 16.4389 15.3482 16.3603 15.3123 16.2737C15.2763 16.1872 15.2578 16.0944 15.2578 16.0007C15.2578 15.907 15.2763 15.8142 15.3123 15.7277C15.3482 15.6412 15.4009 15.5626 15.4672 15.4964L20.2133 10.7504C20.2795 10.684 20.358 10.6313 20.4446 10.5954C20.5311 10.5595 20.6239 10.541 20.7176 10.541C20.8113 10.541 20.9041 10.5595 20.9906 10.5954C21.0771 10.6313 21.1557 10.684 21.2219 10.7504Z" fill="currentColor"/>
<path d="M10.7788 21.2498C10.7124 21.1837 10.6598 21.1051 10.6239 21.0186C10.5879 20.932 10.5694 20.8393 10.5694 20.7456C10.5694 20.6519 10.5879 20.5591 10.6239 20.4726C10.6598 20.386 10.7124 20.3074 10.7788 20.2413L15.02 16.0001L10.7788 11.7576C10.6451 11.6239 10.5699 11.4425 10.5699 11.2534C10.5699 11.0642 10.6451 10.8828 10.7788 10.7491C10.9126 10.6154 11.094 10.5402 11.2831 10.5402C11.4722 10.5402 11.6536 10.6154 11.7874 10.7491L16.5335 15.4952C16.5998 15.5613 16.6525 15.6399 16.6884 15.7265C16.7243 15.813 16.7428 15.9058 16.7428 15.9995C16.7428 16.0932 16.7243 16.1859 16.6884 16.2725C16.6525 16.359 16.5998 16.4376 16.5335 16.5037L11.7874 21.2498C11.7212 21.3162 11.6426 21.3689 11.5561 21.4048C11.4696 21.4407 11.3768 21.4592 11.2831 21.4592C11.1894 21.4592 11.0966 21.4407 11.0101 21.4048C10.9235 21.3689 10.845 21.3162 10.7788 21.2498Z" fill="currentColor"/>
<path d="M10.3808 10.3516C10.6201 10.1124 10.945 9.97801 11.2834 9.97801C11.6215 9.97808 11.9461 10.1118 12.1852 10.3509L11.7874 10.7491C11.6536 10.6154 11.4722 10.5402 11.2831 10.5402L11.1432 10.5546C11.0062 10.582 10.8791 10.6488 10.7788 10.7491L10.6895 10.8577C10.612 10.974 10.5699 11.1116 10.5699 11.2534C10.5699 11.4425 10.6451 11.6239 10.7788 11.7576L15.02 16.0001L10.7788 20.2413C10.7124 20.3074 10.6598 20.386 10.6239 20.4726C10.5879 20.5591 10.5694 20.6519 10.5694 20.7456C10.5694 20.8393 10.5879 20.932 10.6239 21.0186C10.6598 21.1051 10.7124 21.1837 10.7788 21.2498C10.8119 21.283 10.8482 21.3127 10.887 21.3387L11.0101 21.4048C11.0966 21.4407 11.1894 21.4592 11.2831 21.4592C11.3768 21.4592 11.4696 21.4407 11.5561 21.4048C11.6426 21.3689 11.7212 21.3162 11.7874 21.2498L15.9997 17.038L20.2133 21.2511L20.3225 21.3401C20.4 21.3917 20.4866 21.4282 20.578 21.4464L20.7176 21.46C20.8596 21.46 20.9974 21.4178 21.1138 21.3401L21.2219 21.2511C21.3221 21.1508 21.3896 21.0234 21.417 20.8864L21.4307 20.7468C21.4307 20.605 21.3888 20.4675 21.3113 20.3512L21.2219 20.2425L16.9806 16.0001L21.2219 11.7589C21.2549 11.7259 21.2847 11.6897 21.3106 11.6512L21.3768 11.5276C21.3948 11.4843 21.4085 11.4394 21.4176 11.3936L21.4312 11.2546C21.4312 11.1609 21.4128 11.0681 21.3768 10.9816C21.3409 10.8951 21.2882 10.8165 21.2219 10.7504C21.1557 10.684 21.0771 10.6313 20.9906 10.5954L20.8562 10.5546C20.8107 10.5456 20.7643 10.541 20.7176 10.541L20.5786 10.5546C20.5328 10.5637 20.4879 10.5774 20.4446 10.5954L20.3211 10.6616C20.2825 10.6875 20.2463 10.7173 20.2133 10.7504L16.0011 14.9623L11.7874 10.7491L12.1852 10.3509L16.0011 14.1668L19.8156 10.3523C19.9337 10.234 20.0741 10.1402 20.2285 10.0761C20.3834 10.0118 20.5498 9.97802 20.7174 9.97801C20.8852 9.97801 21.0514 10.0117 21.2063 10.0761C21.3605 10.1401 21.4999 10.2343 21.6179 10.3523C21.7367 10.4707 21.8319 10.611 21.8962 10.7659C21.9605 10.9208 21.9942 11.0871 21.9942 11.2548C21.9942 11.4225 21.9605 11.5889 21.8962 11.7437C21.832 11.8981 21.7383 12.0385 21.62 12.1566L17.7765 16.0002L21.62 19.845C21.859 20.0842 21.9929 20.4087 21.9929 20.7469C21.9928 21.0851 21.859 21.4095 21.62 21.6487C21.3807 21.888 21.0558 22.0223 20.7174 22.0223C20.3793 22.0223 20.0548 21.8884 19.8156 21.6494L15.9997 17.8335L12.1859 21.6473L12.0934 21.7316C11.9967 21.8112 11.8883 21.876 11.7723 21.9242C11.6174 21.9886 11.4504 22.0216 11.2827 22.0216C11.1151 22.0216 10.9492 21.9885 10.7945 21.9242C10.6396 21.8599 10.4985 21.7655 10.3801 21.6466C10.2621 21.5286 10.1687 21.3885 10.1046 21.2344C10.0403 21.0795 10.0066 20.9132 10.0066 20.7455C10.0066 20.5778 10.0403 20.4115 10.1046 20.2566C10.1689 20.1019 10.2629 19.9613 10.3815 19.843L14.225 15.9995L10.3808 12.1553C10.1417 11.9161 10.008 11.5916 10.0079 11.2534C10.0079 10.9152 10.1418 10.5908 10.3808 10.3516Z" fill="currentColor"/>
</svg>
