<svg width="32" height="32" viewBox="0 0 32 32" fill="none" xmlns="http://www.w3.org/2000/svg">
<path d="M24.2959 11.7023C24.1914 11.5974 24.0672 11.5142 23.9304 11.4574C23.7937 11.4007 23.6471 11.3714 23.499 11.3714C23.351 11.3714 23.2043 11.4007 23.0676 11.4574C22.9309 11.5142 22.8067 11.5974 22.7021 11.7023L16 18.4045L9.2959 11.7023C9.08455 11.491 8.79791 11.3722 8.49902 11.3722C8.20014 11.3722 7.91349 11.491 7.70215 11.7023C7.4908 11.9137 7.37207 12.2003 7.37207 12.4992C7.37207 12.7981 7.4908 13.0847 7.70215 13.2961L15.2021 20.7961C15.3067 20.9009 15.4309 20.9842 15.5676 21.0409C15.7043 21.0977 15.851 21.127 15.999 21.127C16.1471 21.127 16.2937 21.0977 16.4304 21.0409C16.5672 20.9842 16.6914 20.9009 16.7959 20.7961L24.2959 13.2961C24.4008 13.1915 24.484 13.0674 24.5408 12.9306C24.5976 12.7939 24.6268 12.6473 24.6268 12.4992C24.6268 12.3511 24.5976 12.2045 24.5408 12.0678C24.484 11.931 24.4008 11.8068 24.2959 11.7023Z" fill="currentColor"/>
</svg>
