<svg width="32" height="32" viewBox="0 0 32 32" fill="none" xmlns="http://www.w3.org/2000/svg">
<path d="M23.5 11.125H20.875V9.25C20.875 7.95707 20.3614 6.71709 19.4471 5.80285C18.5329 4.88861 17.2929 4.375 16 4.375C14.7071 4.375 13.4671 4.88861 12.5529 5.80285C11.6386 6.71709 11.125 7.95707 11.125 9.25V11.125H8.5C8.00272 11.125 7.52581 11.3225 7.17417 11.6742C6.82254 12.0258 6.625 12.5027 6.625 13V23.5C6.625 23.9973 6.82254 24.4742 7.17417 24.8258C7.52581 25.1775 8.00272 25.375 8.5 25.375H23.5C23.9973 25.375 24.4742 25.1775 24.8258 24.8258C25.1775 24.4742 25.375 23.9973 25.375 23.5V13C25.375 12.5027 25.1775 12.0258 24.8258 11.6742C24.4742 11.3225 23.9973 11.125 23.5 11.125ZM13.375 9.25C13.375 8.55381 13.6516 7.88613 14.1438 7.39384C14.6361 6.90156 15.3038 6.625 16 6.625C16.6962 6.625 17.3639 6.90156 17.8562 7.39384C18.3484 7.88613 18.625 8.55381 18.625 9.25V11.125H13.375V9.25ZM23.125 23.125H8.875V13.375H23.125V23.125ZM16 14.5C15.304 14.5003 14.6297 14.7425 14.0927 15.1853C13.5557 15.628 13.1893 16.2437 13.0564 16.9269C12.9234 17.6101 13.0321 18.3183 13.3639 18.9301C13.6957 19.5419 14.2299 20.0194 14.875 20.2806V20.875C14.875 21.1734 14.9935 21.4595 15.2045 21.6705C15.4155 21.8815 15.7016 22 16 22C16.2984 22 16.5845 21.8815 16.7955 21.6705C17.0065 21.4595 17.125 21.1734 17.125 20.875V20.2806C17.7701 20.0194 18.3043 19.5419 18.6361 18.9301C18.9679 18.3183 19.0766 17.6101 18.9436 16.9269C18.8107 16.2437 18.4443 15.628 17.9073 15.1853C17.3703 14.7425 16.696 14.5003 16 14.5ZM16 16.75C16.1483 16.75 16.2933 16.794 16.4167 16.8764C16.54 16.9588 16.6361 17.0759 16.6929 17.213C16.7497 17.35 16.7645 17.5008 16.7356 17.6463C16.7066 17.7918 16.6352 17.9254 16.5303 18.0303C16.4254 18.1352 16.2918 18.2066 16.1463 18.2356C16.0008 18.2645 15.85 18.2497 15.713 18.1929C15.5759 18.1361 15.4588 18.04 15.3764 17.9167C15.294 17.7933 15.25 17.6483 15.25 17.5C15.25 17.3011 15.329 17.1103 15.4697 16.9697C15.6103 16.829 15.8011 16.75 16 16.75Z" fill="#2A2A0F"/>
</svg>
