<svg width="32" height="32" viewBox="0 0 32 32" fill="none" xmlns="http://www.w3.org/2000/svg">
<path d="M15.98 8.59571C16.0737 8.59554 16.1665 8.61388 16.2531 8.64966C16.3397 8.68544 16.4183 8.73797 16.4846 8.80422C16.5508 8.87047 16.6034 8.94916 16.6392 9.03575C16.6749 9.12235 16.6933 9.21516 16.6931 9.30886V15.3069L22.6919 15.3077C22.8811 15.3077 23.0625 15.3828 23.1962 15.5166C23.33 15.6503 23.4051 15.8317 23.4051 16.0208C23.4051 16.21 23.33 16.3914 23.1962 16.5251C23.0625 16.6589 22.8811 16.734 22.6919 16.734L15.98 16.734C15.8863 16.7342 15.7935 16.7158 15.7069 16.68C15.6203 16.6443 15.5416 16.5917 15.4753 16.5255C15.4091 16.4592 15.3565 16.3805 15.3208 16.2939C15.285 16.2074 15.2666 16.1145 15.2668 16.0208V9.30886C15.2666 9.21516 15.285 9.12235 15.3208 9.03575C15.3565 8.94916 15.4091 8.87047 15.4753 8.80422C15.5416 8.73796 15.6203 8.68544 15.7069 8.64966C15.7935 8.61388 15.8863 8.59554 15.98 8.59571Z" fill="#2A2A0F"/>
<path d="M16.0199 23.4043C15.9262 23.4045 15.8334 23.3861 15.7468 23.3504C15.6602 23.3146 15.5815 23.262 15.5152 23.1958C15.449 23.1295 15.3965 23.0509 15.3607 22.9643C15.3249 22.8777 15.3066 22.7849 15.3067 22.6912L15.3067 16.6932L9.30788 16.6923C9.11874 16.6923 8.93734 16.6172 8.8036 16.4834C8.66986 16.3497 8.59473 16.1683 8.59473 15.9792C8.59473 15.79 8.66986 15.6086 8.8036 15.4749C8.93734 15.3412 9.11874 15.266 9.30788 15.266L16.0199 15.266C16.1136 15.2659 16.2064 15.2842 16.293 15.32C16.3796 15.3558 16.4582 15.4083 16.5245 15.4745C16.5908 15.5408 16.6433 15.6195 16.6791 15.7061C16.7148 15.7927 16.7332 15.8855 16.733 15.9792L16.733 22.6912C16.7332 22.7849 16.7148 22.8777 16.6791 22.9643C16.6433 23.0509 16.5908 23.1295 16.5245 23.1958C16.4582 23.262 16.3796 23.3146 16.293 23.3504C16.2064 23.3861 16.1136 23.4045 16.0199 23.4043Z" fill="#2A2A0F"/>
<path d="M8.03223 15.9795C8.03223 15.6412 8.16702 15.3164 8.40625 15.0772C8.6454 14.8381 8.96948 14.7032 9.30762 14.7031L9.30788 15.266C9.11874 15.266 8.93734 15.3412 8.8036 15.4749L8.71484 15.584C8.63737 15.7003 8.59473 15.8374 8.59473 15.9792L8.6084 16.1191C8.63582 16.2562 8.70334 16.3832 8.8036 16.4834C8.93734 16.6172 9.11874 16.6923 9.30788 16.6923L15.3067 16.6932L15.3067 22.6912C15.3066 22.7849 15.3249 22.8777 15.3607 22.9643C15.3965 23.0509 15.449 23.1295 15.5152 23.1958C15.5815 23.262 15.6602 23.3146 15.7468 23.3504C15.8334 23.3861 15.9262 23.4045 16.0199 23.4043C16.0668 23.4044 16.1134 23.3997 16.1592 23.3906L16.293 23.3504C16.3796 23.3146 16.4582 23.262 16.5245 23.1958C16.5908 23.1295 16.6433 23.0509 16.6791 22.9643C16.7148 22.8777 16.7332 22.7849 16.733 22.6912L16.7334 16.7344L22.6919 16.734L22.832 16.7197C22.9233 16.7014 23.0104 16.6659 23.0879 16.6143L23.1962 16.5251C23.2967 16.4247 23.3643 16.2974 23.3916 16.1602L23.4051 16.0208C23.405 15.879 23.3627 15.7413 23.2852 15.625L23.1962 15.5166C23.096 15.4163 22.969 15.3487 22.832 15.3213L22.6919 15.3077L16.6931 15.3069V9.30886C16.6932 9.26219 16.6887 9.21549 16.6797 9.16992L16.6392 9.03575C16.6212 8.99238 16.5992 8.95094 16.5732 8.91211L16.4846 8.80422C16.4183 8.73797 16.3397 8.68544 16.2531 8.64966C16.1665 8.61388 16.0737 8.59554 15.98 8.59571C15.8863 8.59554 15.7935 8.61388 15.7069 8.64966L15.583 8.71582C15.5444 8.74164 15.5083 8.77122 15.4753 8.80422L15.3867 8.91211C15.3608 8.95095 15.3387 8.99237 15.3208 9.03575L15.2803 9.16992C15.2713 9.21549 15.2667 9.26219 15.2668 9.30886L15.2666 15.2656L9.30788 15.266L9.30762 14.7031H14.7041V9.3086C14.704 9.14141 14.737 8.97583 14.8008 8.82129C14.8648 8.66632 14.9586 8.52484 15.0771 8.40625C15.1958 8.28765 15.3372 8.19394 15.4922 8.12988C15.6464 8.06616 15.8116 8.03421 15.9785 8.03418C16.1462 8.03389 16.3128 8.06584 16.4678 8.12988C16.6228 8.19394 16.7642 8.28765 16.8828 8.40625C17.0014 8.52483 17.0952 8.66633 17.1592 8.82129C17.223 8.97582 17.256 9.14141 17.2559 9.3086V14.7441L22.6924 14.7451C23.0305 14.7452 23.3546 14.88 23.5938 15.1191C23.8329 15.3583 23.9677 15.6823 23.9678 16.0205C23.9678 16.3588 23.833 16.6836 23.5938 16.9229C23.3546 17.1619 23.0305 17.2968 22.6924 17.2969H17.2959V22.6904L17.29 22.8154C17.278 22.9401 17.2472 23.0625 17.1992 23.1787C17.1352 23.3337 17.0405 23.4751 16.9219 23.5938C16.8033 23.7122 16.6627 23.8061 16.5078 23.8701C16.3528 23.9342 16.1863 23.9671 16.0186 23.9668C15.8517 23.9668 15.6865 23.9338 15.5322 23.8701C15.3772 23.8061 15.2358 23.7124 15.1172 23.5938C14.9986 23.4752 14.9049 23.3337 14.8408 23.1787C14.7769 23.0239 14.7439 22.858 14.7441 22.6904V17.2549H9.30762C8.9694 17.2548 8.64542 17.12 8.40625 16.8809C8.1671 16.6417 8.03231 16.3177 8.03223 15.9795Z" fill="#2A2A0F"/>
</svg>
