<svg width="32" height="32" viewBox="0 0 32 32" fill="none" xmlns="http://www.w3.org/2000/svg">
<path d="M20.547 24.2964C20.6518 24.1919 20.735 24.0677 20.7918 23.9309C20.8486 23.7942 20.8778 23.6476 20.8778 23.4995C20.8778 23.3514 20.8486 23.2048 20.7918 23.0681C20.735 22.9313 20.6518 22.8072 20.547 22.7026L13.8448 16.0004L20.547 9.29639C20.7583 9.08504 20.877 8.7984 20.877 8.49951C20.877 8.20062 20.7583 7.91398 20.547 7.70264C20.3356 7.49129 20.049 7.37256 19.7501 7.37256C19.4512 7.37256 19.1645 7.49129 18.9532 7.70264L11.4532 15.2026C11.3483 15.3072 11.2651 15.4313 11.2083 15.5681C11.1515 15.7048 11.1223 15.8514 11.1223 15.9995C11.1223 16.1476 11.1515 16.2942 11.2083 16.4309C11.2651 16.5677 11.3483 16.6919 11.4532 16.7964L18.9532 24.2964C19.0577 24.4013 19.1819 24.4845 19.3187 24.5413C19.4554 24.598 19.602 24.6273 19.7501 24.6273C19.8981 24.6273 20.0448 24.598 20.1815 24.5413C20.3182 24.4845 20.4424 24.4013 20.547 24.2964Z" fill="#2A2A0F"/>
</svg>
