<svg width="32" height="32" viewBox="0 0 32 32" fill="none" xmlns="http://www.w3.org/2000/svg">
<path d="M27.497 23.1926C27.0661 24.2174 26.5561 25.1608 25.9651 26.0281C25.1596 27.2104 24.5001 28.0288 23.9918 28.4833C23.2039 29.2293 22.3597 29.6113 21.4557 29.633C20.8067 29.633 20.024 29.4429 19.113 29.0573C18.199 28.6734 17.359 28.4833 16.5909 28.4833C15.7854 28.4833 14.9215 28.6734 13.9975 29.0573C13.072 29.4429 12.3265 29.6439 11.7565 29.6638C10.8896 29.7019 10.0255 29.3089 9.16301 28.4833C8.61252 27.989 7.92397 27.1416 7.09911 25.9411C6.2141 24.6592 5.4865 23.1727 4.91649 21.4779C4.30603 19.6473 4 17.8747 4 16.1586C4 14.1928 4.41261 12.4973 5.23905 11.0765C5.88856 9.93523 6.75263 9.03497 7.83409 8.37409C8.91555 7.7132 10.0841 7.37642 11.3425 7.35488C12.031 7.35488 12.934 7.57415 14.056 8.00508C15.175 8.43746 15.8934 8.65673 16.2084 8.65673C16.4439 8.65673 17.242 8.40034 18.595 7.8892C19.8745 7.41517 20.9544 7.2189 21.8391 7.29621C24.2363 7.49538 26.0372 8.46824 27.2349 10.2209C25.091 11.5583 24.0305 13.4314 24.0516 15.8343C24.0709 17.706 24.7305 19.2635 26.0267 20.5002C26.6141 21.0741 27.2701 21.5177 28 21.8328C27.8417 22.3054 27.6746 22.758 27.497 23.1926ZM21.9991 0.919844C21.9991 2.38685 21.4785 3.75658 20.4409 5.02439C19.1886 6.53158 17.674 7.4025 16.0315 7.26507C16.0106 7.08907 15.9984 6.90384 15.9984 6.7092C15.9984 5.30088 16.5939 3.7937 17.6515 2.56137C18.1795 1.93743 18.8509 1.41862 19.6653 1.00476C20.4778 0.597078 21.2464 0.371619 21.9692 0.333011C21.9903 0.529126 21.9991 0.725253 21.9991 0.919825V0.919844Z" fill="currentColor"/>
</svg>
