<svg width="32" height="32" viewBox="0 0 32 32" fill="none" xmlns="http://www.w3.org/2000/svg">
<path d="M22.4167 10.3C22.4167 10.048 22.5132 9.80641 22.6852 9.62825C22.8571 9.45009 23.0902 9.35 23.3333 9.35H26.0833C26.3264 9.35 26.5596 9.45009 26.7315 9.62825C26.9034 9.80641 27 10.048 27 10.3C27 10.552 26.9034 10.7936 26.7315 10.9718C26.5596 11.1499 26.3264 11.25 26.0833 11.25H23.3333C23.0902 11.25 22.8571 11.1499 22.6852 10.9718C22.5132 10.7936 22.4167 10.552 22.4167 10.3ZM5.91667 11.25H16.9167V13.15C16.9167 13.402 17.0132 13.6436 17.1852 13.8218C17.3571 13.9999 17.5902 14.1 17.8333 14.1H19.6667C19.9098 14.1 20.1429 13.9999 20.3148 13.8218C20.4868 13.6436 20.5833 13.402 20.5833 13.15V7.45C20.5833 7.19804 20.4868 6.95641 20.3148 6.77825C20.1429 6.60009 19.9098 6.5 19.6667 6.5H17.8333C17.5902 6.5 17.3571 6.60009 17.1852 6.77825C17.0132 6.95641 16.9167 7.19804 16.9167 7.45V9.35H5.91667C5.67355 9.35 5.44039 9.45009 5.26849 9.62825C5.09658 9.80641 5 10.048 5 10.3C5 10.552 5.09658 10.7936 5.26849 10.9718C5.44039 11.1499 5.67355 11.25 5.91667 11.25ZM26.0833 20.75H16C15.7569 20.75 15.5237 20.8501 15.3518 21.0282C15.1799 21.2064 15.0833 21.448 15.0833 21.7C15.0833 21.952 15.1799 22.1936 15.3518 22.3718C15.5237 22.5499 15.7569 22.65 16 22.65H26.0833C26.3264 22.65 26.5596 22.5499 26.7315 22.3718C26.9034 22.1936 27 21.952 27 21.7C27 21.448 26.9034 21.2064 26.7315 21.0282C26.5596 20.8501 26.3264 20.75 26.0833 20.75ZM12.3333 17.9H10.5C10.2569 17.9 10.0237 18.0001 9.85182 18.1782C9.67991 18.3564 9.58333 18.598 9.58333 18.85V20.75H5.91667C5.67355 20.75 5.44039 20.8501 5.26849 21.0282C5.09658 21.2064 5 21.448 5 21.7C5 21.952 5.09658 22.1936 5.26849 22.3718C5.44039 22.5499 5.67355 22.65 5.91667 22.65H9.58333V24.55C9.58333 24.802 9.67991 25.0436 9.85182 25.2218C10.0237 25.3999 10.2569 25.5 10.5 25.5H12.3333C12.5764 25.5 12.8096 25.3999 12.9815 25.2218C13.1534 25.0436 13.25 24.802 13.25 24.55V18.85C13.25 18.598 13.1534 18.3564 12.9815 18.1782C12.8096 18.0001 12.5764 17.9 12.3333 17.9Z" fill="#2A2A0F"/>
</svg>
