<svg width="32" height="32" viewBox="0 0 32 32" fill="none" xmlns="http://www.w3.org/2000/svg">
<path d="M28 24.447V29.391C28 29.6447 27.8992 29.888 27.7198 30.0674C27.5405 30.2467 27.2972 30.3475 27.0435 30.3475C26.7898 30.3475 26.5465 30.2467 26.3671 30.0674C26.1877 29.888 26.087 29.6447 26.087 29.391V24.447C26.0825 23.2192 25.8254 22.0055 25.3318 20.8814C24.8381 19.7573 24.1184 18.7468 23.2174 17.9127V24.8894C23.2172 25.0952 23.1506 25.2955 23.0276 25.4605C22.9045 25.6255 22.7314 25.7464 22.5342 25.8052C22.3369 25.864 22.1259 25.8576 21.9326 25.787C21.7393 25.7163 21.5739 25.5852 21.461 25.4131L20.184 23.4629C20.1745 23.4486 20.1649 23.4331 20.1565 23.4175C19.969 23.0863 19.6575 22.8432 19.2907 22.7416C18.9238 22.64 18.5317 22.6883 18.2004 22.8759C17.8692 23.0634 17.6261 23.3749 17.5245 23.7417C17.4229 24.1086 17.4712 24.5007 17.6588 24.832L20.3048 28.8721C20.4437 29.0844 20.4925 29.3432 20.4406 29.5915C20.3887 29.8398 20.2403 30.0574 20.028 30.1963C19.8157 30.3352 19.5569 30.384 19.3086 30.3321C19.0602 30.2802 18.8427 30.1318 18.7038 29.9195L16.0423 25.8542L16.0136 25.8088C15.6016 25.1028 15.4622 24.2704 15.6216 23.4686C15.781 22.6668 16.2283 21.9511 16.879 21.4564C17.5298 20.9617 18.3391 20.7221 19.1543 20.783C19.9695 20.8438 20.7342 21.2008 21.3043 21.7866V8.34751H18.3913C18.1376 8.34751 17.8943 8.24673 17.7149 8.06735C17.5356 7.88797 17.4348 7.64467 17.4348 7.39099C17.4348 7.1373 17.5356 6.89401 17.7149 6.71462C17.8943 6.53524 18.1376 6.43446 18.3913 6.43446H21.3043C21.8117 6.43446 22.2983 6.63602 22.6571 6.99478C23.0158 7.35355 23.2174 7.84014 23.2174 8.34751V15.476C24.6855 16.4681 25.8888 17.8041 26.7224 19.3677C27.556 20.9313 27.9946 22.6751 28 24.447ZM9.78261 7.39099C9.78261 7.1373 9.68183 6.89401 9.50245 6.71462C9.32307 6.53524 9.07977 6.43446 8.82609 6.43446H5.91304C5.40567 6.43446 4.91908 6.63602 4.56032 6.99478C4.20155 7.35355 4 7.84014 4 8.34751V24.6084C4 24.8621 4.10078 25.1054 4.28016 25.2847C4.45954 25.4641 4.70284 25.5649 4.95652 25.5649C5.21021 25.5649 5.4535 25.4641 5.63288 25.2847C5.81227 25.1054 5.91304 24.8621 5.91304 24.6084V8.34751H8.82609C9.07977 8.34751 9.32307 8.24673 9.50245 8.06735C9.68183 7.88797 9.78261 7.64467 9.78261 7.39099ZM18.1115 12.4534C18.0227 12.3644 17.9172 12.2939 17.8011 12.2458C17.685 12.1976 17.5605 12.1728 17.4348 12.1728C17.3091 12.1728 17.1846 12.1976 17.0685 12.2458C16.9524 12.2939 16.8469 12.3644 16.758 12.4534L14.5652 14.6474V2.60838C14.5652 2.35469 14.4644 2.1114 14.2851 1.93201C14.1057 1.75263 13.8624 1.65186 13.6087 1.65186C13.355 1.65186 13.1117 1.75263 12.9323 1.93201C12.753 2.1114 12.6522 2.35469 12.6522 2.60838V14.6474L10.4593 12.4534C10.2799 12.2739 10.0364 12.1731 9.78261 12.1731C9.52878 12.1731 9.28535 12.2739 9.10587 12.4534C8.92639 12.6329 8.82555 12.8763 8.82555 13.1301C8.82555 13.3839 8.92639 13.6274 9.10587 13.8069L12.932 17.6329C13.0208 17.7219 13.1263 17.7924 13.2424 17.8406C13.3585 17.8887 13.483 17.9135 13.6087 17.9135C13.7344 17.9135 13.8589 17.8887 13.975 17.8406C14.0911 17.7924 14.1966 17.7219 14.2854 17.6329L18.1115 13.8069C18.2005 13.718 18.271 13.6125 18.3191 13.4964C18.3673 13.3803 18.3921 13.2558 18.3921 13.1301C18.3921 13.0044 18.3673 12.8799 18.3191 12.7638C18.271 12.6477 18.2005 12.5422 18.1115 12.4534Z" fill="currentColor"/>
</svg>
