<svg width="32" height="32" viewBox="0 0 32 32" fill="none" xmlns="http://www.w3.org/2000/svg">
<path d="M28.1421 23.1526L18.3825 6.20369C18.1386 5.78845 17.7905 5.44415 17.3725 5.20492C16.9546 4.96569 16.4814 4.83984 15.9998 4.83984C15.5183 4.83984 15.0451 4.96569 14.6271 5.20492C14.2092 5.44415 13.861 5.78845 13.6171 6.20369L3.85759 23.1526C3.62293 23.5542 3.49927 24.011 3.49927 24.4762C3.49927 24.9413 3.62293 25.3981 3.85759 25.7998C4.09835 26.2175 4.44592 26.5637 4.86464 26.8028C5.28336 27.0418 5.75814 27.1652 6.24028 27.1602H25.7594C26.2411 27.1648 26.7155 27.0413 27.1337 26.8022C27.552 26.5632 27.8993 26.2172 28.1398 25.7998C28.3748 25.3983 28.4989 24.9417 28.4993 24.4765C28.4997 24.0113 28.3764 23.5544 28.1421 23.1526ZM26.5941 24.9059C26.5091 25.051 26.3869 25.1709 26.2402 25.2533C26.0935 25.3356 25.9276 25.3775 25.7594 25.3746H6.24028C6.07207 25.3775 5.90611 25.3356 5.75942 25.2533C5.61273 25.1709 5.49058 25.051 5.4055 24.9059C5.32843 24.7754 5.28778 24.6266 5.28778 24.4751C5.28778 24.3235 5.32843 24.1748 5.4055 24.0443L15.165 7.09538C15.2518 6.95094 15.3745 6.83142 15.5212 6.74844C15.6679 6.66546 15.8335 6.62185 16.0021 6.62185C16.1706 6.62185 16.3362 6.66546 16.4829 6.74844C16.6296 6.83142 16.7523 6.95094 16.8391 7.09538L26.5986 24.0443C26.675 24.1752 26.7149 24.3241 26.7141 24.4757C26.7133 24.6272 26.6719 24.7758 26.5941 24.9059ZM15.107 18.2321V13.768C15.107 13.5312 15.2011 13.3042 15.3685 13.1367C15.5359 12.9693 15.763 12.8752 15.9998 12.8752C16.2366 12.8752 16.4637 12.9693 16.6311 13.1367C16.7986 13.3042 16.8926 13.5312 16.8926 13.768V18.2321C16.8926 18.4689 16.7986 18.696 16.6311 18.8634C16.4637 19.0308 16.2366 19.1249 15.9998 19.1249C15.763 19.1249 15.5359 19.0308 15.3685 18.8634C15.2011 18.696 15.107 18.4689 15.107 18.2321ZM17.339 22.2497C17.339 22.5146 17.2605 22.7735 17.1133 22.9938C16.9662 23.214 16.757 23.3857 16.5123 23.487C16.2676 23.5884 15.9983 23.6149 15.7386 23.5632C15.4788 23.5116 15.2401 23.384 15.0529 23.1967C14.8656 23.0094 14.738 22.7708 14.6863 22.511C14.6347 22.2512 14.6612 21.982 14.7625 21.7372C14.8639 21.4925 15.0356 21.2834 15.2558 21.1362C15.476 20.9891 15.735 20.9105 15.9998 20.9105C16.355 20.9105 16.6956 21.0516 16.9468 21.3028C17.1979 21.5539 17.339 21.8946 17.339 22.2497Z" fill="#2A2A0F"/>
</svg>
