<svg width="32" height="32" viewBox="0 0 32 32" fill="none" xmlns="http://www.w3.org/2000/svg">
<path d="M27.7298 26.425L21.9587 20.6551C23.6314 18.647 24.4655 16.0713 24.2875 13.4638C24.1095 10.8563 22.933 8.41786 21.0029 6.65567C19.0728 4.89348 16.5377 3.94324 13.9248 4.00262C11.3119 4.06201 8.82254 5.12644 6.97449 6.97449C5.12644 8.82254 4.06201 11.3119 4.00262 13.9248C3.94324 16.5377 4.89348 19.0728 6.65567 21.0029C8.41786 22.933 10.8563 24.1095 13.4638 24.2875C16.0713 24.4655 18.647 23.6314 20.6551 21.9587L26.425 27.7298C26.5107 27.8155 26.6124 27.8834 26.7243 27.9298C26.8363 27.9761 26.9563 28 27.0774 28C27.1986 28 27.3185 27.9761 27.4305 27.9298C27.5424 27.8834 27.6441 27.8155 27.7298 27.7298C27.8155 27.6441 27.8834 27.5424 27.9298 27.4305C27.9761 27.3185 28 27.1986 28 27.0774C28 26.9563 27.9761 26.8363 27.9298 26.7243C27.8834 26.6124 27.8155 26.5107 27.7298 26.425ZM5.86963 14.1683C5.86963 12.527 6.35634 10.9225 7.26821 9.55782C8.18009 8.1931 9.47616 7.12944 10.9926 6.50133C12.5089 5.87322 14.1775 5.70888 15.7873 6.02909C17.3971 6.34929 18.8758 7.13967 20.0364 8.30026C21.197 9.46086 21.9874 10.9395 22.3076 12.5493C22.6278 14.1591 22.4634 15.8277 21.8353 17.3441C21.2072 18.8605 20.1435 20.1566 18.7788 21.0684C17.4141 21.9803 15.8097 22.467 14.1683 22.467C11.9681 22.4646 9.85874 21.5895 8.30296 20.0337C6.74718 18.4779 5.87207 16.3685 5.86963 14.1683Z" fill="currentColor"/>
</svg>
