<svg width="32" height="32" viewBox="0 0 32 32" fill="none" xmlns="http://www.w3.org/2000/svg">
<path d="M16 3.19995C12.5264 3.19995 12.0896 3.21595 10.7248 3.27675C9.35995 3.34075 8.43035 3.55515 7.61595 3.87195C6.7617 4.19326 5.98794 4.69727 5.34875 5.34875C4.69767 5.98827 4.19372 6.76193 3.87195 7.61595C3.55515 8.42875 3.33915 9.35995 3.27675 10.72C3.21595 12.088 3.19995 12.5232 3.19995 16.0016C3.19995 19.4768 3.21595 19.912 3.27675 21.2768C3.34075 22.64 3.55515 23.5696 3.87195 24.384C4.19995 25.2256 4.63675 25.9392 5.34875 26.6512C6.05915 27.3632 6.77275 27.8016 7.61435 28.128C8.43035 28.4448 9.35835 28.6608 10.7216 28.7232C12.088 28.784 12.5232 28.8 16 28.8C19.4768 28.8 19.9104 28.784 21.2768 28.7232C22.6384 28.6592 23.5712 28.4448 24.3856 28.128C25.2393 27.8065 26.0125 27.3025 26.6512 26.6512C27.3632 25.9392 27.8 25.2256 28.128 24.384C28.4432 23.5696 28.6592 22.64 28.7232 21.2768C28.784 19.912 28.8 19.4768 28.8 16C28.8 12.5232 28.784 12.088 28.7232 10.7216C28.6592 9.35995 28.4432 8.42875 28.128 7.61595C27.8062 6.76191 27.3023 5.98823 26.6512 5.34875C26.0122 4.69703 25.2383 4.19298 24.384 3.87195C23.568 3.55515 22.6368 3.33915 21.2752 3.27675C19.9088 3.21595 19.4752 3.19995 15.9968 3.19995H16.0016H16ZM14.8528 5.50715H16.0016C19.4192 5.50715 19.824 5.51835 21.1728 5.58075C22.4208 5.63675 23.0992 5.84635 23.5504 6.02075C24.1472 6.25275 24.5744 6.53115 25.0224 6.97915C25.4704 7.42715 25.7472 7.85275 25.9792 8.45115C26.1552 8.90075 26.3632 9.57915 26.4192 10.8272C26.4816 12.176 26.4944 12.5808 26.4944 15.9968C26.4944 19.4128 26.4816 19.8192 26.4192 21.168C26.3632 22.416 26.1536 23.0928 25.9792 23.544C25.7739 24.0997 25.4464 24.6023 25.0208 25.0144C24.5728 25.4624 24.1472 25.7392 23.5488 25.9712C23.1008 26.1472 22.4224 26.3552 21.1728 26.4128C19.824 26.4736 19.4192 26.488 16.0016 26.488C12.584 26.488 12.1776 26.4736 10.8288 26.4128C9.58075 26.3552 8.90395 26.1472 8.45275 25.9712C7.89675 25.7662 7.39375 25.4393 6.98075 25.0144C6.55475 24.6016 6.22671 24.0986 6.02075 23.5424C5.84635 23.0928 5.63675 22.4144 5.58075 21.1664C5.51995 19.8176 5.50715 19.4128 5.50715 15.9936C5.50715 12.576 5.51995 12.1728 5.58075 10.824C5.63835 9.57595 5.84635 8.89755 6.02235 8.44635C6.25435 7.84955 6.53275 7.42235 6.98075 6.97435C7.42875 6.52635 7.85435 6.24955 8.45275 6.01755C8.90395 5.84155 9.58075 5.63355 10.8288 5.57595C12.0096 5.52155 12.4672 5.50555 14.8528 5.50395V5.50715ZM22.8336 7.63195C22.6318 7.63195 22.4321 7.67168 22.2457 7.74887C22.0594 7.82606 21.8901 7.9392 21.7474 8.08184C21.6048 8.22447 21.4917 8.39379 21.4145 8.58015C21.3373 8.76651 21.2976 8.96624 21.2976 9.16795C21.2976 9.36966 21.3373 9.5694 21.4145 9.75575C21.4917 9.94211 21.6048 10.1114 21.7474 10.2541C21.8901 10.3967 22.0594 10.5098 22.2457 10.587C22.4321 10.6642 22.6318 10.704 22.8336 10.704C23.2409 10.704 23.6316 10.5421 23.9197 10.2541C24.2077 9.96601 24.3696 9.57532 24.3696 9.16795C24.3696 8.76058 24.2077 8.36989 23.9197 8.08184C23.6316 7.79378 23.2409 7.63195 22.8336 7.63195ZM16.0016 9.42715C15.1297 9.41355 14.2638 9.57353 13.4543 9.89778C12.6449 10.222 11.908 10.7041 11.2866 11.3158C10.6652 11.9276 10.1717 12.6569 9.8349 13.4612C9.49806 14.2655 9.32459 15.1288 9.32459 16.0008C9.32459 16.8727 9.49806 17.736 9.8349 18.5403C10.1717 19.3446 10.6652 20.0739 11.2866 20.6857C11.908 21.2974 12.6449 21.7795 13.4543 22.1037C14.2638 22.428 15.1297 22.588 16.0016 22.5744C17.7272 22.5474 19.3731 21.843 20.5839 20.6132C21.7947 19.3833 22.4734 17.7266 22.4734 16.0008C22.4734 14.2749 21.7947 12.6182 20.5839 11.3884C19.3731 10.1585 17.7272 9.45407 16.0016 9.42715ZM16.0016 11.7328C17.1333 11.7328 18.2187 12.1823 19.0189 12.9826C19.8192 13.7828 20.2688 14.8682 20.2688 16C20.2688 17.1317 19.8192 18.2171 19.0189 19.0173C18.2187 19.8176 17.1333 20.2672 16.0016 20.2672C14.8698 20.2672 13.7844 19.8176 12.9842 19.0173C12.1839 18.2171 11.7344 17.1317 11.7344 16C11.7344 14.8682 12.1839 13.7828 12.9842 12.9826C13.7844 12.1823 14.8698 11.7328 16.0016 11.7328Z" fill="#2A2A0F"/>
</svg>
