<svg width="32" height="32" viewBox="0 0 32 32" fill="none" xmlns="http://www.w3.org/2000/svg">
<path d="M28 6V26C28 26.5304 27.7893 27.0391 27.4142 27.4142C27.0391 27.7893 26.5304 28 26 28H10C9.73478 28 9.48043 27.8946 9.29289 27.7071C9.10536 27.5196 9 27.2652 9 27C9 26.7348 9.10536 26.4804 9.29289 26.2929C9.48043 26.1054 9.73478 26 10 26H26V6H6V12V22C6 22.2652 5.89464 22.5196 5.70711 22.7071C5.51957 22.8946 5.26522 23 5 23C4.73478 23 4.48043 22.8946 4.29289 22.7071C4.10536 22.5196 4 22.2652 4 22V6C4 5.46957 4.21071 4.96086 4.58579 4.58579C4.96086 4.21071 5.46957 4 6 4H26C26.5304 4 27.0391 4.21071 27.4142 4.58579C27.7893 4.96086 28 5.46957 28 6Z" fill="currentColor"/>
<path d="M23.332 10.0623C23.5086 10.1355 23.6691 10.2429 23.8043 10.3781C23.9395 10.5133 24.0469 10.6737 24.1201 10.8504C24.1933 11.027 24.231 11.2163 24.231 11.4076C24.231 11.5988 24.1933 11.7881 24.1201 11.9647C24.0469 12.1414 23.9395 12.3018 23.8043 12.437L14.6193 21.622C14.4841 21.7572 14.3237 21.8646 14.147 21.9378C13.9704 22.011 13.7811 22.0487 13.5898 22.0487C13.3986 22.0487 13.2093 22.011 13.0327 21.9378C12.856 21.8646 12.6956 21.7572 12.5604 21.622L8.19544 17.257C8.06025 17.1218 7.95302 16.9613 7.87986 16.7847C7.8067 16.608 7.76904 16.4187 7.76904 16.2276C7.76904 16.0364 7.8067 15.8471 7.87986 15.6704C7.95302 15.4938 8.06025 15.3333 8.19544 15.1981C8.33062 15.063 8.49111 14.9557 8.66774 14.8826C8.84436 14.8094 9.03367 14.7717 9.22485 14.7717C9.41603 14.7717 9.60534 14.8094 9.78196 14.8826C9.95859 14.9557 10.1191 15.063 10.2543 15.1981L13.5898 18.5355L21.7454 10.3781C21.8806 10.2429 22.041 10.1355 22.2177 10.0623C22.3943 9.9891 22.5836 9.95142 22.7748 9.95142C22.966 9.95142 23.1554 9.9891 23.332 10.0623Z" fill="currentColor"/>
</svg>
