<svg width="32" height="32" viewBox="0 0 32 32" fill="none" xmlns="http://www.w3.org/2000/svg">
<path d="M27.902 15.5288C27.8662 15.4505 27.0186 13.5685 25.1464 11.6962C22.6413 9.19501 19.484 7.87231 16.0007 7.87231C12.5174 7.87231 9.36017 9.19501 6.858 11.6962C4.98572 13.5685 4.13811 15.4505 4.09941 15.5288C4.03386 15.6774 4 15.8381 4 16.0005C4 16.163 4.03386 16.3236 4.09941 16.4722C4.13521 16.5516 4.98281 18.4326 6.85606 20.3048C9.36017 22.806 12.5174 24.1278 16.0007 24.1278C19.484 24.1278 22.6413 22.806 25.1425 20.3048C27.0157 18.4326 27.8633 16.5516 27.8991 16.4722C27.9651 16.3238 27.9995 16.1633 28 16.0008C28.0005 15.8384 27.9671 15.6776 27.902 15.5288ZM23.4453 18.7219C21.3679 20.7673 18.8638 21.8056 16.0007 21.8056C13.1376 21.8056 10.6335 20.7673 8.55901 18.7209C7.7427 17.9132 7.04052 16.9978 6.47193 16C7.04069 15.0027 7.74286 14.0876 8.55901 13.2802C10.6345 11.2327 13.1376 10.1945 16.0007 10.1945C18.8638 10.1945 21.367 11.2327 23.4424 13.2802C24.2587 14.0876 24.9608 15.0027 25.5295 16C24.9608 16.9977 24.2587 17.9131 23.4424 18.7209L23.4453 18.7219ZM16.0007 11.7427C15.1587 11.7427 14.3356 11.9924 13.6354 12.4602C12.9353 12.928 12.3896 13.5929 12.0674 14.3708C11.7452 15.1487 11.6609 16.0048 11.8251 16.8306C11.9894 17.6565 12.3949 18.4151 12.9903 19.0105C13.5857 19.6059 14.3443 20.0113 15.1701 20.1756C15.996 20.3399 16.852 20.2556 17.63 19.9334C18.4079 19.6111 19.0728 19.0654 19.5406 18.3653C20.0084 17.6652 20.2581 16.8421 20.2581 16C20.2568 14.8713 19.8079 13.7892 19.0097 12.991C18.2116 12.1929 17.1295 11.7439 16.0007 11.7427ZM16.0007 17.9352C15.618 17.9352 15.2438 17.8217 14.9256 17.6091C14.6074 17.3964 14.3593 17.0942 14.2129 16.7406C14.0664 16.387 14.0281 15.9979 14.1027 15.6225C14.1774 15.2471 14.3617 14.9023 14.6323 14.6317C14.903 14.361 15.2478 14.1767 15.6232 14.1021C15.9986 14.0274 16.3877 14.0657 16.7413 14.2122C17.0949 14.3586 17.3971 14.6067 17.6098 14.9249C17.8224 15.2432 17.9359 15.6173 17.9359 16C17.9359 16.5133 17.732 17.0055 17.3691 17.3684C17.0062 17.7313 16.514 17.9352 16.0007 17.9352Z" fill="#2A2A0F"/>
</svg>
