<svg width="32" height="32" viewBox="0 0 32 32" fill="none" xmlns="http://www.w3.org/2000/svg">
<path d="M26.1538 5.84619H5.84618C5.35655 5.84619 4.88698 6.0407 4.54076 6.38692C4.19454 6.73314 4.00003 7.20271 4.00003 7.69234V26.1539C3.99795 26.5057 4.09742 26.8508 4.28653 27.1475C4.47564 27.4443 4.74635 27.6802 5.06618 27.8269C5.31059 27.9404 5.57672 27.9995 5.84618 28C6.27957 27.999 6.69858 27.8444 7.02887 27.5639L7.03926 27.5558L10.8077 24.3077H26.1538C26.6435 24.3077 27.1131 24.1132 27.4593 23.767C27.8055 23.4208 28 22.9512 28 22.4616V7.69234C28 7.20271 27.8055 6.73314 27.4593 6.38692C27.1131 6.0407 26.6435 5.84619 26.1538 5.84619ZM26.1538 22.4616H10.4616C10.2399 22.4617 10.0257 22.5415 9.8581 22.6866L5.84618 26.1539V7.69234H26.1538V22.4616ZM11.3846 13.2308C11.3846 12.986 11.4819 12.7512 11.655 12.5781C11.8281 12.405 12.0629 12.3077 12.3077 12.3077H19.6923C19.9371 12.3077 20.1719 12.405 20.345 12.5781C20.5181 12.7512 20.6154 12.986 20.6154 13.2308C20.6154 13.4756 20.5181 13.7104 20.345 13.8835C20.1719 14.0566 19.9371 14.1539 19.6923 14.1539H12.3077C12.0629 14.1539 11.8281 14.0566 11.655 13.8835C11.4819 13.7104 11.3846 13.4756 11.3846 13.2308ZM11.3846 16.9231C11.3846 16.6783 11.4819 16.4435 11.655 16.2704C11.8281 16.0973 12.0629 16 12.3077 16H19.6923C19.9371 16 20.1719 16.0973 20.345 16.2704C20.5181 16.4435 20.6154 16.6783 20.6154 16.9231C20.6154 17.1679 20.5181 17.4027 20.345 17.5758C20.1719 17.7489 19.9371 17.8462 19.6923 17.8462H12.3077C12.0629 17.8462 11.8281 17.7489 11.655 17.5758C11.4819 17.4027 11.3846 17.1679 11.3846 16.9231Z" fill="#2A2A0F"/>
</svg>
