<svg width="32" height="32" viewBox="0 0 32 32" fill="none" xmlns="http://www.w3.org/2000/svg">
<path d="M11.4528 7.70361C11.3479 7.80813 11.2647 7.93232 11.2079 8.06907C11.1511 8.20581 11.1219 8.35242 11.1219 8.50049C11.1219 8.64855 11.1511 8.79516 11.2079 8.93191C11.2647 9.06865 11.3479 9.19285 11.4528 9.29736L18.155 15.9996L11.4528 22.7036C11.2415 22.915 11.1227 23.2016 11.1227 23.5005C11.1227 23.7994 11.2415 24.086 11.4528 24.2974C11.6641 24.5087 11.9508 24.6274 12.2497 24.6274C12.5486 24.6274 12.8352 24.5087 13.0466 24.2974L20.5466 16.7974C20.6514 16.6928 20.7347 16.5687 20.7914 16.4319C20.8482 16.2952 20.8774 16.1486 20.8774 16.0005C20.8774 15.8524 20.8482 15.7058 20.7914 15.5691C20.7347 15.4323 20.6514 15.3081 20.5466 15.2036L13.0466 7.70361C12.942 7.59874 12.8178 7.51552 12.6811 7.45874C12.5444 7.40196 12.3977 7.37273 12.2497 7.37273C12.1016 7.37273 11.955 7.40196 11.8183 7.45874C11.6815 7.51552 11.5573 7.59873 11.4528 7.70361Z" fill="currentColor"/>
</svg>
