<svg width="32" height="32" viewBox="0 0 32 32" fill="none" xmlns="http://www.w3.org/2000/svg">
<path d="M12.3082 27.2C21.969 27.2 27.2538 19.1952 27.2538 12.2656C27.2538 12.0416 27.2538 11.8144 27.2442 11.5904C28.2731 10.8456 29.1611 9.92348 29.8666 8.86723C28.9055 9.291 27.887 9.57028 26.8442 9.69603C27.9427 9.03945 28.7654 8.00638 29.1594 6.78883C28.1274 7.40023 26.9978 7.82943 25.8202 8.05763C25.0285 7.21447 23.9808 6.6559 22.8395 6.46845C21.6982 6.28099 20.527 6.47511 19.5071 7.02073C18.4873 7.56636 17.6759 8.43304 17.1985 9.48653C16.7212 10.54 16.6045 11.7215 16.8666 12.848C14.7782 12.7433 12.7351 12.2008 10.8699 11.2556C9.00463 10.3105 7.3589 8.98378 6.0394 7.36163C5.36955 8.51857 5.16512 9.88708 5.46764 11.1893C5.77015 12.4914 6.55693 13.6297 7.6682 14.3728C6.83547 14.3445 6.02103 14.1209 5.2906 13.72V13.792C5.29204 15.004 5.71189 16.1783 6.4792 17.1165C7.24651 18.0546 8.3142 18.699 9.5018 18.9408C9.05102 19.065 8.58537 19.1269 8.1178 19.1248C7.78818 19.1258 7.45921 19.0953 7.1354 19.0336C7.47106 20.0769 8.12464 20.9891 9.0046 21.6424C9.88455 22.2957 10.9468 22.6574 12.0426 22.6768C10.1811 24.1389 7.88164 24.9319 5.5146 24.928C5.09751 24.9298 4.68072 24.9057 4.2666 24.856C6.66903 26.3877 9.45908 27.2009 12.3082 27.2Z" fill="#2A2A0F"/>
</svg>
