<svg width="32" height="32" viewBox="0 0 32 32" fill="none" xmlns="http://www.w3.org/2000/svg">
<path d="M27.3951 15.0376L22.5708 19.1256L24.0406 25.2392C24.1217 25.5711 24.1008 25.9191 23.9806 26.2393C23.8604 26.5596 23.6462 26.8376 23.3651 27.0384C23.0841 27.2392 22.7487 27.3536 22.4015 27.3673C22.0542 27.381 21.7106 27.2933 21.4141 27.1153L16.0002 23.8432L10.5831 27.1153C10.2866 27.2923 9.94345 27.3791 9.59678 27.3649C9.25012 27.3507 8.91548 27.2361 8.63501 27.0355C8.35453 26.835 8.14076 26.5574 8.02062 26.2377C7.90047 25.9181 7.87932 25.5706 7.95983 25.2392L9.43497 19.1256L4.61073 15.0376C4.3484 14.8149 4.15868 14.5213 4.06526 14.1934C3.97183 13.8655 3.97886 13.5178 4.08545 13.1938C4.19203 12.8697 4.39347 12.5837 4.66458 12.3715C4.9357 12.1592 5.26449 12.0301 5.60989 12.0002L11.935 11.4991L14.375 5.70028C14.5071 5.38425 14.7318 5.11392 15.0208 4.92367C15.3097 4.73342 15.6497 4.63184 15.9975 4.63184C16.3454 4.63184 16.6854 4.73342 16.9743 4.92367C17.2632 5.11392 17.488 5.38425 17.6201 5.70028L20.059 11.4991L26.3841 12.0002C26.7302 12.029 27.0599 12.1574 27.332 12.3694C27.6042 12.5813 27.8065 12.8674 27.9138 13.1919C28.021 13.5163 28.0284 13.8645 27.935 14.1931C27.8416 14.5216 27.6515 14.8157 27.3886 15.0386L27.3951 15.0376Z" fill="currentColor"/>
</svg>
