<svg width="32" height="32" viewBox="0 0 32 32" fill="none" xmlns="http://www.w3.org/2000/svg">
<path d="M24.2954 20.7962C24.1909 20.9011 24.0667 20.9843 23.93 21.0411C23.7932 21.0979 23.6466 21.1271 23.4985 21.1271C23.3505 21.1271 23.2039 21.0979 23.0671 21.0411C22.9304 20.9843 22.8062 20.9011 22.7017 20.7962L15.9995 14.094L9.29541 20.7962C9.08406 21.0076 8.79742 21.1263 8.49853 21.1263C8.19965 21.1263 7.913 21.0076 7.70166 20.7962C7.49031 20.5849 7.37158 20.2982 7.37158 19.9993C7.37158 19.7005 7.49031 19.4138 7.70166 19.2025L15.2017 11.7025C15.3062 11.5976 15.4304 11.5144 15.5671 11.4576C15.7039 11.4008 15.8505 11.3716 15.9985 11.3716C16.1466 11.3716 16.2932 11.4008 16.43 11.4576C16.5667 11.5144 16.6909 11.5976 16.7954 11.7025L24.2954 19.2025C24.4003 19.307 24.4835 19.4312 24.5403 19.5679C24.5971 19.7047 24.6263 19.8513 24.6263 19.9993C24.6263 20.1474 24.5971 20.294 24.5403 20.4308C24.4835 20.5675 24.4003 20.6917 24.2954 20.7962Z" fill="currentColor"/>
</svg>
