<svg width="32" height="32" viewBox="0 0 32 32" fill="none" xmlns="http://www.w3.org/2000/svg">
<path d="M24 8.72727V13.0909C24 13.2838 23.9234 13.4688 23.787 13.6052C23.6506 13.7416 23.4656 13.8182 23.2727 13.8182C23.0798 13.8182 22.8949 13.7416 22.7585 13.6052C22.6221 13.4688 22.5455 13.2838 22.5455 13.0909V10.4827L18.6964 14.3327C18.5599 14.4692 18.3748 14.5459 18.1818 14.5459C17.9888 14.5459 17.8037 14.4692 17.6673 14.3327C17.5308 14.1963 17.4541 14.0112 17.4541 13.8182C17.4541 13.6252 17.5308 13.4401 17.6673 13.3036L21.5173 9.45455H18.9091C18.7162 9.45455 18.5312 9.37792 18.3948 9.24153C18.2584 9.10514 18.1818 8.92016 18.1818 8.72727C18.1818 8.53439 18.2584 8.3494 18.3948 8.21301C18.5312 8.07662 18.7162 8 18.9091 8H23.2727C23.4656 8 23.6506 8.07662 23.787 8.21301C23.9234 8.3494 24 8.53439 24 8.72727ZM13.3036 17.6673L9.45455 21.5173V18.9091C9.45455 18.7162 9.37792 18.5312 9.24153 18.3948C9.10514 18.2584 8.92016 18.1818 8.72727 18.1818C8.53439 18.1818 8.3494 18.2584 8.21301 18.3948C8.07662 18.5312 8 18.7162 8 18.9091V23.2727C8 23.4656 8.07662 23.6506 8.21301 23.787C8.3494 23.9234 8.53439 24 8.72727 24H13.0909C13.2838 24 13.4688 23.9234 13.6052 23.787C13.7416 23.6506 13.8182 23.4656 13.8182 23.2727C13.8182 23.0798 13.7416 22.8949 13.6052 22.7585C13.4688 22.6221 13.2838 22.5455 13.0909 22.5455H10.4827L14.3327 18.6964C14.4692 18.5599 14.5459 18.3748 14.5459 18.1818C14.5459 17.9888 14.4692 17.8037 14.3327 17.6673C14.1963 17.5308 14.0112 17.4541 13.8182 17.4541C13.6252 17.4541 13.4401 17.5308 13.3036 17.6673ZM23.2727 18.1818C23.0798 18.1818 22.8949 18.2584 22.7585 18.3948C22.6221 18.5312 22.5455 18.7162 22.5455 18.9091V21.5173L18.6964 17.6673C18.5599 17.5308 18.3748 17.4541 18.1818 17.4541C17.9888 17.4541 17.8037 17.5308 17.6673 17.6673C17.5308 17.8037 17.4541 17.9888 17.4541 18.1818C17.4541 18.3748 17.5308 18.5599 17.6673 18.6964L21.5173 22.5455H18.9091C18.7162 22.5455 18.5312 22.6221 18.3948 22.7585C18.2584 22.8949 18.1818 23.0798 18.1818 23.2727C18.1818 23.4656 18.2584 23.6506 18.3948 23.787C18.5312 23.9234 18.7162 24 18.9091 24H23.2727C23.4656 24 23.6506 23.9234 23.787 23.787C23.9234 23.6506 24 23.4656 24 23.2727V18.9091C24 18.7162 23.9234 18.5312 23.787 18.3948C23.6506 18.2584 23.4656 18.1818 23.2727 18.1818ZM10.4827 9.45455H13.0909C13.2838 9.45455 13.4688 9.37792 13.6052 9.24153C13.7416 9.10514 13.8182 8.92016 13.8182 8.72727C13.8182 8.53439 13.7416 8.3494 13.6052 8.21301C13.4688 8.07662 13.2838 8 13.0909 8H8.72727C8.53439 8 8.3494 8.07662 8.21301 8.21301C8.07662 8.3494 8 8.53439 8 8.72727V13.0909C8 13.2838 8.07662 13.4688 8.21301 13.6052C8.3494 13.7416 8.53439 13.8182 8.72727 13.8182C8.92016 13.8182 9.10514 13.7416 9.24153 13.6052C9.37792 13.4688 9.45455 13.2838 9.45455 13.0909V10.4827L13.3036 14.3327C13.4401 14.4692 13.6252 14.5459 13.8182 14.5459C14.0112 14.5459 14.1963 14.4692 14.3327 14.3327C14.4692 14.1963 14.5459 14.0112 14.5459 13.8182C14.5459 13.6252 14.4692 13.4401 14.3327 13.3036L10.4827 9.45455Z" fill="currentColor"/>
</svg>
