<svg width="32" height="32" viewBox="0 0 32 32" fill="none" xmlns="http://www.w3.org/2000/svg">
<path d="M27.9141 9.67169L22.328 4.0869C22.1423 3.90114 21.9218 3.75379 21.6792 3.65326C21.4365 3.55272 21.1764 3.50098 20.9137 3.50098C20.651 3.50098 20.3909 3.55272 20.1483 3.65326C19.9056 3.75379 19.6851 3.90114 19.4994 4.0869L4.08624 19.5001C3.89972 19.6851 3.75184 19.9054 3.6512 20.1481C3.55056 20.3908 3.49917 20.651 3.50001 20.9138V26.4998C3.50001 27.0302 3.71072 27.5389 4.08577 27.914C4.46083 28.289 4.96952 28.4997 5.49993 28.4997H26.4991C26.7643 28.4997 27.0187 28.3944 27.2062 28.2068C27.3937 28.0193 27.4991 27.765 27.4991 27.4998C27.4991 27.2345 27.3937 26.9802 27.2062 26.7927C27.0187 26.6051 26.7643 26.4998 26.4991 26.4998H13.9146L27.9141 12.5003C28.0998 12.3146 28.2472 12.0941 28.3477 11.8515C28.4483 11.6088 28.5 11.3487 28.5 11.086C28.5 10.8233 28.4483 10.5632 28.3477 10.3206C28.2472 10.0779 28.0998 9.8574 27.9141 9.67169ZM11.086 26.4998H5.49993V20.9138L16.4995 9.91418L22.0855 15.5002L11.086 26.4998ZM23.4992 14.0865L17.9145 8.50048L20.9143 5.5006L26.4991 11.0866L23.4992 14.0865Z" fill="currentColor"/>
</svg>
