<svg width="32" height="32" viewBox="0 0 32 32" fill="none" xmlns="http://www.w3.org/2000/svg">
<path d="M28 6V26C28 26.5304 27.7893 27.0391 27.4142 27.4142C27.0391 27.7893 26.5304 28 26 28H10C9.73478 28 9.48043 27.8946 9.29289 27.7071C9.10536 27.5196 9 27.2652 9 27C9 26.7348 9.10536 26.4804 9.29289 26.2929C9.48043 26.1054 9.73478 26 10 26H26V6H6V22C6 22.2652 5.89464 22.5196 5.70711 22.7071C5.51957 22.8946 5.26522 23 5 23C4.73478 23 4.48043 22.8946 4.29289 22.7071C4.10536 22.5196 4 22.2652 4 22V6C4 5.46957 4.21071 4.96086 4.58579 4.58579C4.96086 4.21071 5.46957 4 6 4H26C26.5304 4 27.0391 4.21071 27.4142 4.58579C27.7893 4.96086 28 5.46957 28 6Z" fill="currentColor"/>
<path d="M22.6123 15.084L19.8129 17.4741L20.6658 21.0486C20.7128 21.2426 20.7007 21.4461 20.6309 21.6334C20.5612 21.8206 20.4369 21.9832 20.2738 22.1005C20.1107 22.2179 19.9161 22.2848 19.7146 22.2928C19.5131 22.3008 19.3137 22.2496 19.1416 22.1455L16.0001 20.2324L12.8567 22.1455C12.6846 22.249 12.4855 22.2998 12.2843 22.2915C12.0832 22.2832 11.889 22.2162 11.7262 22.0989C11.5635 21.9816 11.4394 21.8193 11.3697 21.6324C11.3 21.4455 11.2877 21.2424 11.3344 21.0486L12.1904 17.4741L9.39102 15.084C9.23879 14.9538 9.1287 14.7821 9.07449 14.5904C9.02028 14.3987 9.02435 14.1954 9.0862 14.0059C9.14805 13.8165 9.26494 13.6493 9.42226 13.5252C9.57959 13.4011 9.77038 13.3256 9.9708 13.3081L13.6411 13.0151L15.057 9.62469C15.1336 9.43992 15.2641 9.28186 15.4317 9.17063C15.5994 9.05939 15.7967 9 15.9985 9C16.2004 9 16.3977 9.05939 16.5653 9.17063C16.733 9.28186 16.8634 9.43992 16.9401 9.62469L18.3553 13.0151L22.0256 13.3081C22.2265 13.3249 22.4178 13.4 22.5757 13.5239C22.7336 13.6479 22.851 13.8152 22.9133 14.0048C22.9755 14.1945 22.9798 14.3981 22.9256 14.5902C22.8714 14.7823 22.6085 15.0846 22.6085 15.0846L22.6123 15.084Z" fill="currentColor"/>
</svg>
