<svg width="32" height="32" viewBox="0 0 32 32" fill="none" xmlns="http://www.w3.org/2000/svg">
<path d="M24.4444 8.5H7.55556C7.2756 8.5 7.00712 8.61288 6.80917 8.81381C6.61121 9.01475 6.5 9.28727 6.5 9.57143V21.7143C6.5 22.1879 6.68535 22.6421 7.01528 22.977C7.3452 23.3119 7.79267 23.5 8.25926 23.5H23.7407C24.2073 23.5 24.6548 23.3119 24.9847 22.977C25.3146 22.6421 25.5 22.1879 25.5 21.7143V9.57143C25.5 9.28727 25.3888 9.01475 25.1908 8.81381C24.9929 8.61288 24.7244 8.5 24.4444 8.5ZM21.7308 10.6429L16 15.975L10.2692 10.6429H21.7308ZM8.61111 21.3571V12.0071L15.2866 18.2188C15.4813 18.4 15.7359 18.5005 16 18.5005C16.2641 18.5005 16.5187 18.4 16.7134 18.2188L23.3889 12.0071V21.3571H8.61111Z" fill="currentColor"/>
</svg>
