<svg width="500" height="110" viewBox="0 0 500 110" fill="none" xmlns="http://www.w3.org/2000/svg">
<g clip-path="url(#clip0_155_144)">
<path d="M80.865 2.69416C79.7902 2.58796 79.6678 4.46423 80.7427 4.63239C87.0169 5.51742 100.614 11.934 103.804 14.7926C110.349 20.6604 113.075 30.1214 113.075 36.4494C113.075 42.7774 111.083 71.7535 115.172 80.9932C125.659 104.721 142 101.553 171.16 101.553C171.16 101.553 145.259 87.0734 144.071 52.265C143.38 31.4667 139.946 19.9258 132.344 13.8722C128.42 10.7568 122.609 8.13712 108.278 9.65938C99.1198 7.16358 90.6347 3.67655 80.865 2.69416Z" fill="#67AD51"/>
<path d="M196.616 6.41147C198.363 8.18154 194.466 32.6351 178.265 54.4954C171.728 63.3458 164.047 70.6473 156.296 75.0105C152.743 67.2681 150.795 58.8704 150.572 50.3358C150.406 45.3176 150.074 40.8393 149.567 36.8478C150.383 35.6678 151.234 34.5349 152.119 33.4493C169.648 11.5978 194.894 4.66795 196.616 6.41147Z" fill="#67AD51"/>
</g>
<path d="M480.243 99.8V10.2H496.883V99.8H480.243Z" fill="#2A2A0F"/>
<path d="M443.368 99.8V10.2H460.008V99.8H443.368Z" fill="#2A2A0F"/>
<path d="M325.118 99.8V10.2H338.814L377.982 75.608H370.814L409.342 10.2H423.038L423.166 99.8H407.422L407.294 34.904H410.622L377.854 89.56H370.43L337.15 34.904H340.99V99.8H325.118Z" fill="#2A2A0F"/>
<path d="M206.868 99.8V10.2H220.564L259.732 75.608H252.564L291.092 10.2H304.788L304.916 99.8H289.172L289.044 34.904H292.372L259.604 89.56H252.18L218.9 34.904H222.74V99.8H206.868Z" fill="#2A2A0F"/>
<path d="M66.0937 10.2H82.7337V99.8H66.0937V10.2ZM19.7577 99.8H3.11768V10.2H19.7577V99.8ZM67.3737 61.4H18.3497V47.192H67.3737V61.4Z" fill="#2A2A0F"/>
<defs>
<clipPath id="clip0_155_144">
<rect width="117" height="99" fill="white" transform="translate(80 2.69434)"/>
</clipPath>
</defs>
</svg>
