<svg width="1920" height="80" viewBox="0 0 1920 80" fill="none" xmlns="http://www.w3.org/2000/svg">
<path d="M1564 40C1564 26.7452 1574.74 16 1588 16H1737C1750.25 16 1761 26.7452 1761 40C1761 53.2548 1750.25 64 1737 64H1588C1574.74 64 1564 53.2548 1564 40Z" fill="#16A34A"/>
<path d="M1599.93 42.8379C1599.93 42.5449 1599.88 42.2845 1599.79 42.0566C1599.7 41.8288 1599.55 41.6204 1599.33 41.4316C1599.11 41.2428 1598.8 41.0605 1598.39 40.8848C1598 40.7025 1597.49 40.5169 1596.87 40.3281C1596.19 40.1198 1595.57 39.8887 1594.99 39.6348C1594.43 39.3743 1593.93 39.0749 1593.51 38.7363C1593.09 38.3913 1592.76 37.9974 1592.52 37.5547C1592.29 37.1055 1592.17 36.5879 1592.17 36.002C1592.17 35.4225 1592.29 34.8952 1592.53 34.4199C1592.78 33.9447 1593.13 33.5345 1593.58 33.1895C1594.03 32.8379 1594.57 32.5677 1595.19 32.3789C1595.81 32.1836 1596.49 32.0859 1597.24 32.0859C1598.29 32.0859 1599.2 32.2812 1599.96 32.6719C1600.73 33.0625 1601.32 33.5866 1601.73 34.2441C1602.15 34.9017 1602.36 35.6276 1602.36 36.4219H1599.93C1599.93 35.9531 1599.82 35.5397 1599.62 35.1816C1599.43 34.8171 1599.13 34.5306 1598.72 34.3223C1598.33 34.1139 1597.82 34.0098 1597.21 34.0098C1596.63 34.0098 1596.15 34.0977 1595.77 34.2734C1595.38 34.4492 1595.09 34.6868 1594.91 34.9863C1594.72 35.2858 1594.62 35.6243 1594.62 36.002C1594.62 36.2689 1594.68 36.513 1594.81 36.7344C1594.93 36.9492 1595.12 37.151 1595.37 37.3398C1595.63 37.5221 1595.95 37.6947 1596.33 37.8574C1596.72 38.0202 1597.17 38.1764 1597.69 38.3262C1598.48 38.5605 1599.16 38.821 1599.75 39.1074C1600.34 39.3874 1600.82 39.7064 1601.21 40.0645C1601.61 40.4225 1601.9 40.8294 1602.09 41.2852C1602.29 41.7344 1602.39 42.2454 1602.39 42.8184C1602.39 43.4173 1602.27 43.9577 1602.03 44.4395C1601.78 44.9147 1601.44 45.3216 1600.99 45.6602C1600.55 45.9922 1600.01 46.2493 1599.39 46.4316C1598.77 46.6074 1598.08 46.6953 1597.32 46.6953C1596.63 46.6953 1595.96 46.6042 1595.3 46.4219C1594.64 46.2396 1594.04 45.9629 1593.5 45.5918C1592.96 45.2142 1592.53 44.7454 1592.21 44.1855C1591.89 43.6191 1591.73 42.9583 1591.73 42.2031H1594.18C1594.18 42.6654 1594.26 43.0592 1594.42 43.3848C1594.58 43.7103 1594.81 43.9772 1595.09 44.1855C1595.38 44.3874 1595.71 44.5371 1596.09 44.6348C1596.47 44.7324 1596.88 44.7812 1597.32 44.7812C1597.89 44.7812 1598.37 44.6999 1598.75 44.5371C1599.14 44.3743 1599.44 44.1465 1599.63 43.8535C1599.83 43.5605 1599.93 43.222 1599.93 42.8379ZM1606.84 35.9336V46.5H1604.48V35.9336H1606.84ZM1604.32 33.1602C1604.32 32.8021 1604.44 32.5059 1604.67 32.2715C1604.91 32.0306 1605.24 31.9102 1605.67 31.9102C1606.08 31.9102 1606.41 32.0306 1606.65 32.2715C1606.89 32.5059 1607.02 32.8021 1607.02 33.1602C1607.02 33.5117 1606.89 33.8047 1606.65 34.0391C1606.41 34.2734 1606.08 34.3906 1605.67 34.3906C1605.24 34.3906 1604.91 34.2734 1604.67 34.0391C1604.44 33.8047 1604.32 33.5117 1604.32 33.1602ZM1616.19 35.9336H1618.32V46.207C1618.32 47.1576 1618.12 47.9648 1617.72 48.6289C1617.31 49.293 1616.75 49.7975 1616.03 50.1426C1615.31 50.4941 1614.47 50.6699 1613.52 50.6699C1613.12 50.6699 1612.67 50.6113 1612.17 50.4941C1611.68 50.377 1611.21 50.1882 1610.75 49.9277C1610.29 49.6738 1609.91 49.3385 1609.6 48.9219L1610.71 47.5352C1611.08 47.9844 1611.5 48.3132 1611.96 48.5215C1612.41 48.7298 1612.89 48.834 1613.39 48.834C1613.93 48.834 1614.39 48.7331 1614.77 48.5312C1615.15 48.3359 1615.45 48.0462 1615.66 47.6621C1615.87 47.278 1615.97 46.8092 1615.97 46.2559V38.3262L1616.19 35.9336ZM1609.01 41.334V41.1289C1609.01 40.3281 1609.11 39.599 1609.3 38.9414C1609.5 38.2773 1609.78 37.7077 1610.14 37.2324C1610.51 36.7507 1610.95 36.3828 1611.47 36.1289C1611.99 35.8685 1612.58 35.7383 1613.24 35.7383C1613.92 35.7383 1614.5 35.862 1614.98 36.1094C1615.47 36.3568 1615.88 36.7116 1616.2 37.1738C1616.53 37.6296 1616.78 38.1764 1616.97 38.8145C1617.16 39.446 1617.3 40.1491 1617.39 40.9238V41.5781C1617.3 42.3333 1617.16 43.0234 1616.96 43.6484C1616.76 44.2734 1616.49 44.8138 1616.16 45.2695C1615.82 45.7253 1615.41 46.0768 1614.93 46.3242C1614.44 46.5716 1613.87 46.6953 1613.22 46.6953C1612.57 46.6953 1611.99 46.5618 1611.47 46.2949C1610.95 46.028 1610.51 45.6536 1610.14 45.1719C1609.78 44.6901 1609.5 44.1237 1609.3 43.4727C1609.11 42.8151 1609.01 42.1022 1609.01 41.334ZM1611.36 41.1289V41.334C1611.36 41.8158 1611.41 42.265 1611.5 42.6816C1611.6 43.0983 1611.74 43.4661 1611.94 43.7852C1612.14 44.0977 1612.39 44.3451 1612.7 44.5273C1613.01 44.7031 1613.38 44.791 1613.8 44.791C1614.36 44.791 1614.81 44.6738 1615.16 44.4395C1615.52 44.2051 1615.79 43.8893 1615.98 43.4922C1616.18 43.0885 1616.31 42.6393 1616.39 42.1445V40.377C1616.35 39.9928 1616.27 39.6348 1616.15 39.3027C1616.03 38.9707 1615.87 38.681 1615.67 38.4336C1615.47 38.1797 1615.21 37.9844 1614.91 37.8477C1614.6 37.7044 1614.24 37.6328 1613.82 37.6328C1613.4 37.6328 1613.03 37.724 1612.72 37.9062C1612.41 38.0885 1612.15 38.3392 1611.95 38.6582C1611.75 38.9772 1611.61 39.3483 1611.51 39.7715C1611.41 40.1947 1611.36 40.6471 1611.36 41.1289ZM1623.1 38.1895V46.5H1620.75V35.9336H1622.96L1623.1 38.1895ZM1622.68 40.8262L1621.92 40.8164C1621.92 40.0677 1622.03 39.3809 1622.23 38.7559C1622.44 38.1309 1622.73 37.5938 1623.09 37.1445C1623.46 36.6953 1623.9 36.3503 1624.42 36.1094C1624.93 35.862 1625.51 35.7383 1626.14 35.7383C1626.64 35.7383 1627.1 35.8099 1627.51 35.9531C1627.93 36.0898 1628.28 36.3145 1628.58 36.627C1628.88 36.9395 1629.11 37.3464 1629.26 37.8477C1629.42 38.3424 1629.5 38.9512 1629.5 39.6738V46.5H1627.13V39.6641C1627.13 39.1562 1627.06 38.7559 1626.91 38.4629C1626.76 38.1634 1626.55 37.9518 1626.27 37.8281C1626 37.6979 1625.66 37.6328 1625.25 37.6328C1624.84 37.6328 1624.48 37.7174 1624.16 37.8867C1623.84 38.056 1623.57 38.2871 1623.35 38.5801C1623.14 38.873 1622.97 39.2116 1622.86 39.5957C1622.74 39.9798 1622.68 40.39 1622.68 40.8262ZM1639.4 35.9336V46.5H1637.03V35.9336H1639.4ZM1636.88 33.1602C1636.88 32.8021 1637 32.5059 1637.23 32.2715C1637.47 32.0306 1637.8 31.9102 1638.23 31.9102C1638.64 31.9102 1638.97 32.0306 1639.21 32.2715C1639.45 32.5059 1639.57 32.8021 1639.57 33.1602C1639.57 33.5117 1639.45 33.8047 1639.21 34.0391C1638.97 34.2734 1638.64 34.3906 1638.23 34.3906C1637.8 34.3906 1637.47 34.2734 1637.23 34.0391C1637 33.8047 1636.88 33.5117 1636.88 33.1602ZM1644.31 38.1895V46.5H1641.96V35.9336H1644.17L1644.31 38.1895ZM1643.89 40.8262L1643.13 40.8164C1643.14 40.0677 1643.24 39.3809 1643.44 38.7559C1643.65 38.1309 1643.94 37.5938 1644.3 37.1445C1644.67 36.6953 1645.11 36.3503 1645.63 36.1094C1646.14 35.862 1646.72 35.7383 1647.35 35.7383C1647.86 35.7383 1648.31 35.8099 1648.72 35.9531C1649.14 36.0898 1649.5 36.3145 1649.79 36.627C1650.09 36.9395 1650.32 37.3464 1650.47 37.8477C1650.63 38.3424 1650.71 38.9512 1650.71 39.6738V46.5H1648.34V39.6641C1648.34 39.1562 1648.27 38.7559 1648.12 38.4629C1647.98 38.1634 1647.76 37.9518 1647.48 37.8281C1647.21 37.6979 1646.87 37.6328 1646.46 37.6328C1646.06 37.6328 1645.69 37.7174 1645.37 37.8867C1645.06 38.056 1644.79 38.2871 1644.56 38.5801C1644.35 38.873 1644.18 39.2116 1644.07 39.5957C1643.95 39.9798 1643.89 40.39 1643.89 40.8262ZM1659.29 32.2812L1653.75 47.7207H1651.91L1657.45 32.2812H1659.29ZM1673.62 42.8379C1673.62 42.5449 1673.57 42.2845 1673.48 42.0566C1673.4 41.8288 1673.24 41.6204 1673.02 41.4316C1672.8 41.2428 1672.49 41.0605 1672.08 40.8848C1671.69 40.7025 1671.18 40.5169 1670.56 40.3281C1669.88 40.1198 1669.26 39.8887 1668.69 39.6348C1668.12 39.3743 1667.62 39.0749 1667.2 38.7363C1666.78 38.3913 1666.45 37.9974 1666.21 37.5547C1665.98 37.1055 1665.86 36.5879 1665.86 36.002C1665.86 35.4225 1665.98 34.8952 1666.22 34.4199C1666.47 33.9447 1666.82 33.5345 1667.27 33.1895C1667.73 32.8379 1668.26 32.5677 1668.88 32.3789C1669.5 32.1836 1670.18 32.0859 1670.93 32.0859C1671.99 32.0859 1672.89 32.2812 1673.66 32.6719C1674.42 33.0625 1675.01 33.5866 1675.42 34.2441C1675.84 34.9017 1676.05 35.6276 1676.05 36.4219H1673.62C1673.62 35.9531 1673.52 35.5397 1673.31 35.1816C1673.12 34.8171 1672.82 34.5306 1672.42 34.3223C1672.02 34.1139 1671.51 34.0098 1670.9 34.0098C1670.32 34.0098 1669.84 34.0977 1669.46 34.2734C1669.07 34.4492 1668.79 34.6868 1668.6 34.9863C1668.41 35.2858 1668.31 35.6243 1668.31 36.002C1668.31 36.2689 1668.38 36.513 1668.5 36.7344C1668.62 36.9492 1668.81 37.151 1669.07 37.3398C1669.32 37.5221 1669.64 37.6947 1670.02 37.8574C1670.41 38.0202 1670.86 38.1764 1671.38 38.3262C1672.17 38.5605 1672.86 38.821 1673.44 39.1074C1674.03 39.3874 1674.52 39.7064 1674.91 40.0645C1675.3 40.4225 1675.59 40.8294 1675.78 41.2852C1675.98 41.7344 1676.08 42.2454 1676.08 42.8184C1676.08 43.4173 1675.96 43.9577 1675.72 44.4395C1675.48 44.9147 1675.13 45.3216 1674.68 45.6602C1674.24 45.9922 1673.7 46.2493 1673.08 46.4316C1672.46 46.6074 1671.77 46.6953 1671.01 46.6953C1670.33 46.6953 1669.65 46.6042 1668.99 46.4219C1668.33 46.2396 1667.73 45.9629 1667.19 45.5918C1666.65 45.2142 1666.22 44.7454 1665.9 44.1855C1665.58 43.6191 1665.42 42.9583 1665.42 42.2031H1667.87C1667.87 42.6654 1667.95 43.0592 1668.11 43.3848C1668.27 43.7103 1668.5 43.9772 1668.78 44.1855C1669.07 44.3874 1669.4 44.5371 1669.78 44.6348C1670.16 44.7324 1670.57 44.7812 1671.01 44.7812C1671.58 44.7812 1672.06 44.6999 1672.45 44.5371C1672.84 44.3743 1673.13 44.1465 1673.32 43.8535C1673.52 43.5605 1673.62 43.222 1673.62 42.8379ZM1680.53 35.9336V46.5H1678.17V35.9336H1680.53ZM1678.01 33.1602C1678.01 32.8021 1678.13 32.5059 1678.36 32.2715C1678.6 32.0306 1678.94 31.9102 1679.36 31.9102C1679.78 31.9102 1680.1 32.0306 1680.35 32.2715C1680.59 32.5059 1680.71 32.8021 1680.71 33.1602C1680.71 33.5117 1680.59 33.8047 1680.35 34.0391C1680.1 34.2734 1679.78 34.3906 1679.36 34.3906C1678.94 34.3906 1678.6 34.2734 1678.36 34.0391C1678.13 33.8047 1678.01 33.5117 1678.01 33.1602ZM1689.88 35.9336H1692.02V46.207C1692.02 47.1576 1691.81 47.9648 1691.41 48.6289C1691.01 49.293 1690.44 49.7975 1689.72 50.1426C1689 50.4941 1688.16 50.6699 1687.21 50.6699C1686.81 50.6699 1686.36 50.6113 1685.86 50.4941C1685.37 50.377 1684.9 50.1882 1684.44 49.9277C1683.98 49.6738 1683.6 49.3385 1683.29 48.9219L1684.4 47.5352C1684.78 47.9844 1685.19 48.3132 1685.65 48.5215C1686.1 48.7298 1686.58 48.834 1687.08 48.834C1687.62 48.834 1688.08 48.7331 1688.46 48.5312C1688.84 48.3359 1689.14 48.0462 1689.35 47.6621C1689.56 47.278 1689.66 46.8092 1689.66 46.2559V38.3262L1689.88 35.9336ZM1682.7 41.334V41.1289C1682.7 40.3281 1682.8 39.599 1682.99 38.9414C1683.19 38.2773 1683.47 37.7077 1683.83 37.2324C1684.2 36.7507 1684.64 36.3828 1685.16 36.1289C1685.68 35.8685 1686.27 35.7383 1686.93 35.7383C1687.61 35.7383 1688.19 35.862 1688.68 36.1094C1689.16 36.3568 1689.57 36.7116 1689.9 37.1738C1690.22 37.6296 1690.48 38.1764 1690.66 38.8145C1690.85 39.446 1690.99 40.1491 1691.08 40.9238V41.5781C1690.99 42.3333 1690.85 43.0234 1690.65 43.6484C1690.45 44.2734 1690.18 44.8138 1689.85 45.2695C1689.52 45.7253 1689.11 46.0768 1688.62 46.3242C1688.14 46.5716 1687.57 46.6953 1686.91 46.6953C1686.26 46.6953 1685.68 46.5618 1685.16 46.2949C1684.65 46.028 1684.2 45.6536 1683.83 45.1719C1683.47 44.6901 1683.19 44.1237 1682.99 43.4727C1682.8 42.8151 1682.7 42.1022 1682.7 41.334ZM1685.05 41.1289V41.334C1685.05 41.8158 1685.1 42.265 1685.19 42.6816C1685.29 43.0983 1685.43 43.4661 1685.63 43.7852C1685.83 44.0977 1686.08 44.3451 1686.39 44.5273C1686.7 44.7031 1687.07 44.791 1687.49 44.791C1688.05 44.791 1688.5 44.6738 1688.85 44.4395C1689.21 44.2051 1689.48 43.8893 1689.67 43.4922C1689.87 43.0885 1690 42.6393 1690.08 42.1445V40.377C1690.04 39.9928 1689.96 39.6348 1689.84 39.3027C1689.72 38.9707 1689.56 38.681 1689.36 38.4336C1689.16 38.1797 1688.9 37.9844 1688.6 37.8477C1688.29 37.7044 1687.93 37.6328 1687.51 37.6328C1687.09 37.6328 1686.72 37.724 1686.41 37.9062C1686.1 38.0885 1685.84 38.3392 1685.64 38.6582C1685.44 38.9772 1685.3 39.3483 1685.2 39.7715C1685.1 40.1947 1685.05 40.6471 1685.05 41.1289ZM1696.79 38.1895V46.5H1694.44V35.9336H1696.65L1696.79 38.1895ZM1696.37 40.8262L1695.61 40.8164C1695.62 40.0677 1695.72 39.3809 1695.92 38.7559C1696.13 38.1309 1696.42 37.5938 1696.78 37.1445C1697.15 36.6953 1697.59 36.3503 1698.11 36.1094C1698.62 35.862 1699.2 35.7383 1699.83 35.7383C1700.34 35.7383 1700.79 35.8099 1701.2 35.9531C1701.62 36.0898 1701.98 36.3145 1702.27 36.627C1702.57 36.9395 1702.8 37.3464 1702.95 37.8477C1703.11 38.3424 1703.19 38.9512 1703.19 39.6738V46.5H1700.82V39.6641C1700.82 39.1562 1700.75 38.7559 1700.6 38.4629C1700.46 38.1634 1700.24 37.9518 1699.96 37.8281C1699.69 37.6979 1699.35 37.6328 1698.94 37.6328C1698.54 37.6328 1698.17 37.7174 1697.86 37.8867C1697.54 38.056 1697.27 38.2871 1697.04 38.5801C1696.83 38.873 1696.66 39.2116 1696.55 39.5957C1696.43 39.9798 1696.37 40.39 1696.37 40.8262ZM1718.78 32.2812H1721.22V41.7832C1721.22 42.8639 1720.99 43.7689 1720.52 44.498C1720.05 45.2272 1719.41 45.7773 1718.61 46.1484C1717.81 46.513 1716.91 46.6953 1715.92 46.6953C1714.9 46.6953 1713.99 46.513 1713.19 46.1484C1712.39 45.7773 1711.76 45.2272 1711.29 44.498C1710.84 43.7689 1710.61 42.8639 1710.61 41.7832V32.2812H1713.05V41.7832C1713.05 42.4668 1713.17 43.0299 1713.4 43.4727C1713.64 43.9089 1713.97 44.2311 1714.4 44.4395C1714.83 44.6478 1715.34 44.752 1715.92 44.752C1716.51 44.752 1717.01 44.6478 1717.44 44.4395C1717.87 44.2311 1718.2 43.9089 1718.43 43.4727C1718.67 43.0299 1718.78 42.4668 1718.78 41.7832V32.2812ZM1726.02 37.9648V50.5625H1723.67V35.9336H1725.83L1726.02 37.9648ZM1732.9 41.1191V41.3242C1732.9 42.0924 1732.81 42.8053 1732.63 43.4629C1732.45 44.1139 1732.19 44.6836 1731.84 45.1719C1731.49 45.6536 1731.07 46.028 1730.56 46.2949C1730.05 46.5618 1729.47 46.6953 1728.8 46.6953C1728.14 46.6953 1727.57 46.5749 1727.07 46.334C1726.59 46.0866 1726.17 45.7383 1725.83 45.2891C1725.5 44.8398 1725.22 44.3125 1725.01 43.707C1724.81 43.0951 1724.67 42.4245 1724.58 41.6953V40.9043C1724.67 40.1296 1724.81 39.4264 1725.01 38.7949C1725.22 38.1634 1725.5 37.6198 1725.83 37.1641C1726.17 36.7083 1726.59 36.3568 1727.07 36.1094C1727.56 35.862 1728.13 35.7383 1728.78 35.7383C1729.45 35.7383 1730.04 35.8685 1730.55 36.1289C1731.06 36.3828 1731.5 36.7474 1731.85 37.2227C1732.2 37.6914 1732.46 38.2578 1732.64 38.9219C1732.82 39.5794 1732.9 40.3118 1732.9 41.1191ZM1730.55 41.3242V41.1191C1730.55 40.6309 1730.51 40.1784 1730.41 39.7617C1730.32 39.3385 1730.18 38.9674 1729.98 38.6484C1729.79 38.3294 1729.54 38.082 1729.23 37.9062C1728.93 37.724 1728.57 37.6328 1728.15 37.6328C1727.73 37.6328 1727.37 37.7044 1727.07 37.8477C1726.77 37.9844 1726.52 38.1764 1726.32 38.4238C1726.12 38.6712 1725.96 38.9609 1725.85 39.293C1725.74 39.6185 1725.66 39.9733 1725.62 40.3574V42.252C1725.7 42.7207 1725.83 43.1504 1726.02 43.541C1726.21 43.9316 1726.48 44.2441 1726.82 44.4785C1727.17 44.7064 1727.62 44.8203 1728.17 44.8203C1728.59 44.8203 1728.95 44.7292 1729.25 44.5469C1729.55 44.3646 1729.8 44.1139 1729.98 43.7949C1730.18 43.4694 1730.32 43.0951 1730.41 42.6719C1730.51 42.2487 1730.55 41.7995 1730.55 41.3242Z" fill="white"/>
<path d="M1798 30.25C1796.07 30.25 1794.19 30.8218 1792.58 31.8932C1790.98 32.9645 1789.73 34.4873 1788.99 36.2688C1788.25 38.0504 1788.06 40.0108 1788.44 41.9021C1788.81 43.7934 1789.74 45.5307 1791.11 46.8943C1792.47 48.2579 1794.21 49.1865 1796.1 49.5627C1797.99 49.9389 1799.95 49.7458 1801.73 49.0078C1803.51 48.2699 1805.04 47.0202 1806.11 45.4168C1807.18 43.8134 1807.75 41.9284 1807.75 40C1807.75 37.415 1806.72 34.9366 1804.89 33.1087C1803.06 31.2808 1800.58 30.2527 1798 30.25ZM1806.25 40C1806.25 41.0584 1806.05 42.107 1805.65 43.0881L1801.46 40.5109C1801.28 40.401 1801.08 40.3298 1800.87 40.3019L1798.73 40.0131C1798.44 39.9747 1798.14 40.0241 1797.87 40.1552C1797.61 40.2863 1797.38 40.4932 1797.23 40.75H1796.42L1796.06 40.0131C1795.96 39.8079 1795.82 39.628 1795.64 39.4871C1795.46 39.3462 1795.25 39.2481 1795.03 39.2003L1794.28 39.0381L1795.01 37.75H1796.58C1796.83 37.7495 1797.08 37.685 1797.3 37.5625L1798.45 36.9288C1798.55 36.8725 1798.65 36.8052 1798.73 36.7281L1801.26 34.4462C1801.51 34.2196 1801.68 33.9135 1801.73 33.5784C1801.79 33.2433 1801.73 32.8993 1801.56 32.6031L1801.53 32.5422C1802.94 33.2116 1804.13 34.2676 1804.97 35.5876C1805.8 36.9077 1806.25 38.4377 1806.25 40ZM1799.44 31.8756L1800.25 33.3344L1797.73 35.6163L1796.58 36.25H1795.01C1794.75 36.2496 1794.49 36.3187 1794.26 36.4504C1794.03 36.5821 1793.84 36.7716 1793.71 37L1792.89 38.4278L1791.94 35.8928L1792.97 33.4675C1793.88 32.7661 1794.92 32.262 1796.03 31.9875C1797.15 31.7131 1798.31 31.6743 1799.44 31.8737L1799.44 31.8756ZM1789.75 40C1789.75 38.7738 1790.02 37.5628 1790.55 36.4562L1791.61 39.2941C1791.7 39.529 1791.85 39.738 1792.04 39.9018C1792.23 40.0656 1792.46 40.179 1792.7 40.2316L1794.71 40.6637L1795.07 41.4062C1795.19 41.6588 1795.39 41.8716 1795.62 42.0207C1795.86 42.1698 1796.14 42.2492 1796.42 42.25H1796.56L1795.88 43.7716C1795.76 44.0395 1795.72 44.3365 1795.77 44.626C1795.82 44.9154 1795.95 45.1845 1796.15 45.4L1796.16 45.4131L1798 47.3069L1797.82 48.2444C1795.66 48.1942 1793.61 47.3041 1792.11 45.7638C1790.6 44.2235 1789.75 42.1551 1789.75 40ZM1799.37 48.1356L1799.47 47.5909C1799.52 47.3595 1799.5 47.1211 1799.44 46.8949C1799.37 46.6686 1799.26 46.4607 1799.1 46.2878C1799.09 46.2837 1799.09 46.2793 1799.08 46.2747L1797.25 44.3819L1798.53 41.5L1800.67 41.7887L1804.96 44.425C1804.34 45.4002 1803.52 46.2343 1802.56 46.8735C1801.59 47.5127 1800.51 47.9426 1799.37 48.1356Z" fill="#0F172A"/>
<path d="M1828.75 44.5566V46.5H1821.2V44.5566H1828.75ZM1821.9 32.2812V46.5H1819.45V32.2812H1821.9ZM1827.77 38.2188V40.1328H1821.2V38.2188H1827.77ZM1828.7 32.2812V34.2344H1821.2V32.2812H1828.7ZM1842.03 32.2812V46.5H1839.58L1833.2 36.3145V46.5H1830.75V32.2812H1833.2L1839.6 42.4863V32.2812H1842.03Z" fill="#0F172A"/>
<path d="M1859.7 36.2041C1859.81 36.0992 1859.93 36.016 1860.07 35.9592C1860.21 35.9024 1860.35 35.8732 1860.5 35.8732C1860.65 35.8732 1860.8 35.9024 1860.93 35.9592C1861.07 36.016 1861.19 36.0992 1861.3 36.2041L1868 42.9063L1874.7 36.2041C1874.92 35.9927 1875.2 35.874 1875.5 35.874C1875.8 35.874 1876.09 35.9927 1876.3 36.2041C1876.51 36.4154 1876.63 36.7021 1876.63 37.0009C1876.63 37.2998 1876.51 37.5865 1876.3 37.7978L1868.8 45.2978C1868.69 45.4027 1868.57 45.4859 1868.43 45.5427C1868.3 45.5995 1868.15 45.6287 1868 45.6287C1867.85 45.6287 1867.71 45.5995 1867.57 45.5427C1867.43 45.4859 1867.31 45.4027 1867.2 45.2978L1859.7 37.7978C1859.6 37.6933 1859.52 37.5691 1859.46 37.4324C1859.4 37.2956 1859.37 37.149 1859.37 37.0009C1859.37 36.8529 1859.4 36.7063 1859.46 36.5695C1859.52 36.4328 1859.6 36.3086 1859.7 36.2041Z" fill="#0F172A"/>
<path d="M289.844 41.8711H292.285C292.207 42.8021 291.947 43.6322 291.504 44.3613C291.061 45.084 290.439 45.6536 289.639 46.0703C288.838 46.487 287.865 46.6953 286.719 46.6953C285.84 46.6953 285.049 46.5391 284.346 46.2266C283.643 45.9076 283.04 45.4583 282.539 44.8789C282.038 44.293 281.654 43.5866 281.387 42.7598C281.126 41.9329 280.996 41.0085 280.996 39.9863V38.8047C280.996 37.7826 281.13 36.8581 281.396 36.0312C281.67 35.2044 282.061 34.498 282.568 33.9121C283.076 33.3197 283.685 32.8672 284.395 32.5547C285.111 32.2422 285.915 32.0859 286.807 32.0859C287.939 32.0859 288.896 32.2943 289.678 32.7109C290.459 33.1276 291.064 33.7038 291.494 34.4395C291.93 35.1751 292.197 36.0182 292.295 36.9688H289.854C289.788 36.3568 289.645 35.8327 289.424 35.3965C289.209 34.9603 288.89 34.6283 288.467 34.4004C288.044 34.166 287.49 34.0488 286.807 34.0488C286.247 34.0488 285.758 34.153 285.342 34.3613C284.925 34.5697 284.577 34.8757 284.297 35.2793C284.017 35.6829 283.805 36.181 283.662 36.7734C283.525 37.3594 283.457 38.0299 283.457 38.7852V39.9863C283.457 40.7025 283.519 41.3535 283.643 41.9395C283.773 42.5189 283.968 43.0169 284.229 43.4336C284.495 43.8503 284.834 44.1725 285.244 44.4004C285.654 44.6283 286.146 44.7422 286.719 44.7422C287.415 44.7422 287.979 44.6315 288.408 44.4102C288.844 44.1888 289.173 43.8665 289.395 43.4434C289.622 43.0137 289.772 42.4896 289.844 41.8711ZM300.234 44.3809V39.3418C300.234 38.9642 300.166 38.6387 300.029 38.3652C299.893 38.0918 299.684 37.8802 299.404 37.7305C299.131 37.5807 298.786 37.5059 298.369 37.5059C297.985 37.5059 297.653 37.571 297.373 37.7012C297.093 37.8314 296.875 38.0072 296.719 38.2285C296.562 38.4499 296.484 38.7005 296.484 38.9805H294.141C294.141 38.5638 294.242 38.1602 294.443 37.7695C294.645 37.3789 294.938 37.0306 295.322 36.7246C295.706 36.4186 296.165 36.1777 296.699 36.002C297.233 35.8262 297.832 35.7383 298.496 35.7383C299.29 35.7383 299.993 35.8717 300.605 36.1387C301.224 36.4056 301.709 36.8092 302.061 37.3496C302.419 37.8835 302.598 38.554 302.598 39.3613V44.0586C302.598 44.5404 302.63 44.9733 302.695 45.3574C302.767 45.735 302.868 46.0638 302.998 46.3438V46.5H300.586C300.475 46.2461 300.387 45.9238 300.322 45.5332C300.264 45.1361 300.234 44.752 300.234 44.3809ZM300.576 40.0742L300.596 41.5293H298.906C298.47 41.5293 298.086 41.5716 297.754 41.6562C297.422 41.7344 297.145 41.8516 296.924 42.0078C296.702 42.1641 296.536 42.3529 296.426 42.5742C296.315 42.7956 296.26 43.0462 296.26 43.3262C296.26 43.6061 296.325 43.8633 296.455 44.0977C296.585 44.3255 296.774 44.5046 297.021 44.6348C297.275 44.765 297.581 44.8301 297.939 44.8301C298.421 44.8301 298.841 44.7324 299.199 44.5371C299.564 44.3353 299.85 44.0911 300.059 43.8047C300.267 43.5117 300.378 43.235 300.391 42.9746L301.152 44.0195C301.074 44.2865 300.941 44.5729 300.752 44.8789C300.563 45.1849 300.316 45.4779 300.01 45.7578C299.71 46.0312 299.349 46.2559 298.926 46.4316C298.509 46.6074 298.027 46.6953 297.48 46.6953C296.79 46.6953 296.175 46.5586 295.635 46.2852C295.094 46.0052 294.671 45.6309 294.365 45.1621C294.059 44.6868 293.906 44.1497 293.906 43.5508C293.906 42.9909 294.01 42.4961 294.219 42.0664C294.434 41.6302 294.746 41.2656 295.156 40.9727C295.573 40.6797 296.081 40.4583 296.68 40.3086C297.279 40.1523 297.962 40.0742 298.73 40.0742H300.576ZM309.902 35.9336V37.6523H303.945V35.9336H309.902ZM305.664 33.3457H308.018V43.5801C308.018 43.9056 308.063 44.1562 308.154 44.332C308.252 44.5013 308.385 44.6152 308.555 44.6738C308.724 44.7324 308.923 44.7617 309.15 44.7617C309.313 44.7617 309.469 44.752 309.619 44.7324C309.769 44.7129 309.889 44.6934 309.98 44.6738L309.99 46.4707C309.795 46.5293 309.567 46.5814 309.307 46.627C309.053 46.6725 308.76 46.6953 308.428 46.6953C307.887 46.6953 307.409 46.6009 306.992 46.4121C306.576 46.2168 306.25 45.901 306.016 45.4648C305.781 45.0286 305.664 44.4492 305.664 43.7266V33.3457ZM316.377 46.6953C315.596 46.6953 314.889 46.5684 314.258 46.3145C313.633 46.054 313.099 45.6927 312.656 45.2305C312.22 44.7682 311.885 44.2246 311.65 43.5996C311.416 42.9746 311.299 42.3008 311.299 41.5781V41.1875C311.299 40.3607 311.419 39.612 311.66 38.9414C311.901 38.2708 312.236 37.6979 312.666 37.2227C313.096 36.7409 313.604 36.373 314.189 36.1191C314.775 35.8652 315.41 35.7383 316.094 35.7383C316.849 35.7383 317.51 35.8652 318.076 36.1191C318.643 36.373 319.111 36.7311 319.482 37.1934C319.86 37.6491 320.14 38.1927 320.322 38.8242C320.511 39.4557 320.605 40.1523 320.605 40.9141V41.9199H312.441V40.2305H318.281V40.0449C318.268 39.6217 318.184 39.2246 318.027 38.8535C317.878 38.4824 317.646 38.1829 317.334 37.9551C317.021 37.7272 316.605 37.6133 316.084 37.6133C315.693 37.6133 315.345 37.6979 315.039 37.8672C314.74 38.0299 314.489 38.2676 314.287 38.5801C314.085 38.8926 313.929 39.2702 313.818 39.7129C313.714 40.1491 313.662 40.6406 313.662 41.1875V41.5781C313.662 42.0404 313.724 42.4701 313.848 42.8672C313.978 43.2578 314.167 43.5996 314.414 43.8926C314.661 44.1855 314.961 44.4167 315.312 44.5859C315.664 44.7487 316.064 44.8301 316.514 44.8301C317.08 44.8301 317.585 44.7161 318.027 44.4883C318.47 44.2604 318.854 43.9382 319.18 43.5215L320.42 44.7227C320.192 45.0547 319.896 45.3737 319.531 45.6797C319.167 45.9792 318.721 46.2233 318.193 46.4121C317.673 46.6009 317.067 46.6953 316.377 46.6953ZM329.209 35.9336H331.348V46.207C331.348 47.1576 331.146 47.9648 330.742 48.6289C330.339 49.293 329.775 49.7975 329.053 50.1426C328.33 50.4941 327.493 50.6699 326.543 50.6699C326.139 50.6699 325.69 50.6113 325.195 50.4941C324.707 50.377 324.232 50.1882 323.77 49.9277C323.314 49.6738 322.933 49.3385 322.627 48.9219L323.73 47.5352C324.108 47.9844 324.525 48.3132 324.98 48.5215C325.436 48.7298 325.915 48.834 326.416 48.834C326.956 48.834 327.415 48.7331 327.793 48.5312C328.177 48.3359 328.473 48.0462 328.682 47.6621C328.89 47.278 328.994 46.8092 328.994 46.2559V38.3262L329.209 35.9336ZM322.031 41.334V41.1289C322.031 40.3281 322.129 39.599 322.324 38.9414C322.52 38.2773 322.799 37.7077 323.164 37.2324C323.529 36.7507 323.971 36.3828 324.492 36.1289C325.013 35.8685 325.602 35.7383 326.26 35.7383C326.943 35.7383 327.526 35.862 328.008 36.1094C328.496 36.3568 328.903 36.7116 329.229 37.1738C329.554 37.6296 329.808 38.1764 329.99 38.8145C330.179 39.446 330.319 40.1491 330.41 40.9238V41.5781C330.326 42.3333 330.182 43.0234 329.98 43.6484C329.779 44.2734 329.512 44.8138 329.18 45.2695C328.848 45.7253 328.438 46.0768 327.949 46.3242C327.467 46.5716 326.898 46.6953 326.24 46.6953C325.596 46.6953 325.013 46.5618 324.492 46.2949C323.978 46.028 323.535 45.6536 323.164 45.1719C322.799 44.6901 322.52 44.1237 322.324 43.4727C322.129 42.8151 322.031 42.1022 322.031 41.334ZM324.385 41.1289V41.334C324.385 41.8158 324.43 42.265 324.521 42.6816C324.619 43.0983 324.766 43.4661 324.961 43.7852C325.163 44.0977 325.417 44.3451 325.723 44.5273C326.035 44.7031 326.403 44.791 326.826 44.791C327.38 44.791 327.832 44.6738 328.184 44.4395C328.542 44.2051 328.815 43.8893 329.004 43.4922C329.199 43.0885 329.336 42.6393 329.414 42.1445V40.377C329.375 39.9928 329.294 39.6348 329.17 39.3027C329.053 38.9707 328.893 38.681 328.691 38.4336C328.49 38.1797 328.236 37.9844 327.93 37.8477C327.624 37.7044 327.262 37.6328 326.846 37.6328C326.423 37.6328 326.055 37.724 325.742 37.9062C325.43 38.0885 325.173 38.3392 324.971 38.6582C324.775 38.9772 324.629 39.3483 324.531 39.7715C324.434 40.1947 324.385 40.6471 324.385 41.1289ZM333.34 41.334V41.1094C333.34 40.3477 333.451 39.6413 333.672 38.9902C333.893 38.3327 334.212 37.763 334.629 37.2812C335.052 36.793 335.566 36.4154 336.172 36.1484C336.784 35.875 337.474 35.7383 338.242 35.7383C339.017 35.7383 339.707 35.875 340.312 36.1484C340.924 36.4154 341.442 36.793 341.865 37.2812C342.288 37.763 342.611 38.3327 342.832 38.9902C343.053 39.6413 343.164 40.3477 343.164 41.1094V41.334C343.164 42.0957 343.053 42.8021 342.832 43.4531C342.611 44.1042 342.288 44.6738 341.865 45.1621C341.442 45.6439 340.928 46.0215 340.322 46.2949C339.717 46.5618 339.03 46.6953 338.262 46.6953C337.487 46.6953 336.794 46.5618 336.182 46.2949C335.576 46.0215 335.062 45.6439 334.639 45.1621C334.215 44.6738 333.893 44.1042 333.672 43.4531C333.451 42.8021 333.34 42.0957 333.34 41.334ZM335.693 41.1094V41.334C335.693 41.8092 335.742 42.2585 335.84 42.6816C335.938 43.1048 336.09 43.4759 336.299 43.7949C336.507 44.1139 336.774 44.3646 337.1 44.5469C337.425 44.7292 337.812 44.8203 338.262 44.8203C338.698 44.8203 339.076 44.7292 339.395 44.5469C339.72 44.3646 339.987 44.1139 340.195 43.7949C340.404 43.4759 340.557 43.1048 340.654 42.6816C340.758 42.2585 340.811 41.8092 340.811 41.334V41.1094C340.811 40.6406 340.758 40.1979 340.654 39.7812C340.557 39.3581 340.4 38.9837 340.186 38.6582C339.977 38.3327 339.71 38.0788 339.385 37.8965C339.066 37.7077 338.685 37.6133 338.242 37.6133C337.799 37.6133 337.415 37.7077 337.09 37.8965C336.771 38.0788 336.507 38.3327 336.299 38.6582C336.09 38.9837 335.938 39.3581 335.84 39.7812C335.742 40.1979 335.693 40.6406 335.693 41.1094ZM347.5 37.9453V46.5H345.146V35.9336H347.393L347.5 37.9453ZM350.732 35.8652L350.713 38.0527C350.57 38.0267 350.413 38.0072 350.244 37.9941C350.081 37.9811 349.919 37.9746 349.756 37.9746C349.352 37.9746 348.997 38.0332 348.691 38.1504C348.385 38.2611 348.128 38.4238 347.92 38.6387C347.718 38.847 347.562 39.1009 347.451 39.4004C347.34 39.6999 347.275 40.0352 347.256 40.4062L346.719 40.4453C346.719 39.7812 346.784 39.166 346.914 38.5996C347.044 38.0332 347.24 37.5352 347.5 37.1055C347.767 36.6758 348.099 36.3405 348.496 36.0996C348.9 35.8587 349.365 35.7383 349.893 35.7383C350.036 35.7383 350.189 35.7513 350.352 35.7773C350.521 35.8034 350.648 35.8327 350.732 35.8652ZM354.727 35.9336V46.5H352.363V35.9336H354.727ZM352.207 33.1602C352.207 32.8021 352.324 32.5059 352.559 32.2715C352.799 32.0306 353.132 31.9102 353.555 31.9102C353.971 31.9102 354.3 32.0306 354.541 32.2715C354.782 32.5059 354.902 32.8021 354.902 33.1602C354.902 33.5117 354.782 33.8047 354.541 34.0391C354.3 34.2734 353.971 34.3906 353.555 34.3906C353.132 34.3906 352.799 34.2734 352.559 34.0391C352.324 33.8047 352.207 33.5117 352.207 33.1602ZM361.963 46.6953C361.182 46.6953 360.475 46.5684 359.844 46.3145C359.219 46.054 358.685 45.6927 358.242 45.2305C357.806 44.7682 357.471 44.2246 357.236 43.5996C357.002 42.9746 356.885 42.3008 356.885 41.5781V41.1875C356.885 40.3607 357.005 39.612 357.246 38.9414C357.487 38.2708 357.822 37.6979 358.252 37.2227C358.682 36.7409 359.189 36.373 359.775 36.1191C360.361 35.8652 360.996 35.7383 361.68 35.7383C362.435 35.7383 363.096 35.8652 363.662 36.1191C364.229 36.373 364.697 36.7311 365.068 37.1934C365.446 37.6491 365.726 38.1927 365.908 38.8242C366.097 39.4557 366.191 40.1523 366.191 40.9141V41.9199H358.027V40.2305H363.867V40.0449C363.854 39.6217 363.77 39.2246 363.613 38.8535C363.464 38.4824 363.232 38.1829 362.92 37.9551C362.607 37.7272 362.191 37.6133 361.67 37.6133C361.279 37.6133 360.931 37.6979 360.625 37.8672C360.326 38.0299 360.075 38.2676 359.873 38.5801C359.671 38.8926 359.515 39.2702 359.404 39.7129C359.3 40.1491 359.248 40.6406 359.248 41.1875V41.5781C359.248 42.0404 359.31 42.4701 359.434 42.8672C359.564 43.2578 359.753 43.5996 360 43.8926C360.247 44.1855 360.547 44.4167 360.898 44.5859C361.25 44.7487 361.65 44.8301 362.1 44.8301C362.666 44.8301 363.171 44.7161 363.613 44.4883C364.056 44.2604 364.44 43.9382 364.766 43.5215L366.006 44.7227C365.778 45.0547 365.482 45.3737 365.117 45.6797C364.753 45.9792 364.307 46.2233 363.779 46.4121C363.258 46.6009 362.653 46.6953 361.963 46.6953ZM373.955 43.6387C373.955 43.4043 373.896 43.1927 373.779 43.0039C373.662 42.8086 373.438 42.6328 373.105 42.4766C372.78 42.3203 372.298 42.1771 371.66 42.0469C371.1 41.9232 370.586 41.7767 370.117 41.6074C369.655 41.4316 369.258 41.2201 368.926 40.9727C368.594 40.7253 368.337 40.4323 368.154 40.0938C367.972 39.7552 367.881 39.3646 367.881 38.9219C367.881 38.4922 367.975 38.0853 368.164 37.7012C368.353 37.3171 368.623 36.9785 368.975 36.6855C369.326 36.3926 369.753 36.1615 370.254 35.9922C370.762 35.8229 371.328 35.7383 371.953 35.7383C372.839 35.7383 373.597 35.888 374.229 36.1875C374.867 36.4805 375.355 36.8809 375.693 37.3887C376.032 37.89 376.201 38.4564 376.201 39.0879H373.848C373.848 38.8079 373.776 38.5475 373.633 38.3066C373.496 38.0592 373.288 37.8607 373.008 37.7109C372.728 37.5547 372.376 37.4766 371.953 37.4766C371.549 37.4766 371.214 37.5417 370.947 37.6719C370.687 37.7956 370.492 37.9583 370.361 38.1602C370.238 38.362 370.176 38.5833 370.176 38.8242C370.176 39 370.208 39.1595 370.273 39.3027C370.345 39.4395 370.462 39.5664 370.625 39.6836C370.788 39.7943 371.009 39.8984 371.289 39.9961C371.576 40.0938 371.934 40.1882 372.363 40.2793C373.171 40.4486 373.864 40.6667 374.443 40.9336C375.029 41.194 375.479 41.5326 375.791 41.9492C376.104 42.3594 376.26 42.8802 376.26 43.5117C376.26 43.9805 376.159 44.4102 375.957 44.8008C375.762 45.1849 375.475 45.5202 375.098 45.8066C374.72 46.0866 374.268 46.3047 373.74 46.4609C373.219 46.6172 372.633 46.6953 371.982 46.6953C371.025 46.6953 370.215 46.526 369.551 46.1875C368.887 45.8424 368.382 45.403 368.037 44.8691C367.699 44.3288 367.529 43.7689 367.529 43.1895H369.805C369.831 43.6257 369.951 43.974 370.166 44.2344C370.387 44.4883 370.661 44.6738 370.986 44.791C371.318 44.9017 371.66 44.957 372.012 44.957C372.435 44.957 372.79 44.9017 373.076 44.791C373.363 44.6738 373.581 44.5176 373.73 44.3223C373.88 44.1204 373.955 43.8926 373.955 43.6387Z" fill="#0F172A"/>
<path d="M413.84 38.2188V40.1621H406.291V38.2188H413.84ZM406.896 32.2812V46.5H404.445V32.2812H406.896ZM415.725 32.2812V46.5H413.283V32.2812H415.725ZM417.961 41.334V41.1094C417.961 40.3477 418.072 39.6413 418.293 38.9902C418.514 38.3327 418.833 37.763 419.25 37.2812C419.673 36.793 420.188 36.4154 420.793 36.1484C421.405 35.875 422.095 35.7383 422.863 35.7383C423.638 35.7383 424.328 35.875 424.934 36.1484C425.546 36.4154 426.063 36.793 426.486 37.2812C426.91 37.763 427.232 38.3327 427.453 38.9902C427.674 39.6413 427.785 40.3477 427.785 41.1094V41.334C427.785 42.0957 427.674 42.8021 427.453 43.4531C427.232 44.1042 426.91 44.6738 426.486 45.1621C426.063 45.6439 425.549 46.0215 424.943 46.2949C424.338 46.5618 423.651 46.6953 422.883 46.6953C422.108 46.6953 421.415 46.5618 420.803 46.2949C420.197 46.0215 419.683 45.6439 419.26 45.1621C418.837 44.6738 418.514 44.1042 418.293 43.4531C418.072 42.8021 417.961 42.0957 417.961 41.334ZM420.314 41.1094V41.334C420.314 41.8092 420.363 42.2585 420.461 42.6816C420.559 43.1048 420.712 43.4759 420.92 43.7949C421.128 44.1139 421.395 44.3646 421.721 44.5469C422.046 44.7292 422.434 44.8203 422.883 44.8203C423.319 44.8203 423.697 44.7292 424.016 44.5469C424.341 44.3646 424.608 44.1139 424.816 43.7949C425.025 43.4759 425.178 43.1048 425.275 42.6816C425.38 42.2585 425.432 41.8092 425.432 41.334V41.1094C425.432 40.6406 425.38 40.1979 425.275 39.7812C425.178 39.3581 425.021 38.9837 424.807 38.6582C424.598 38.3327 424.331 38.0788 424.006 37.8965C423.687 37.7077 423.306 37.6133 422.863 37.6133C422.421 37.6133 422.036 37.7077 421.711 37.8965C421.392 38.0788 421.128 38.3327 420.92 38.6582C420.712 38.9837 420.559 39.3581 420.461 39.7812C420.363 40.1979 420.314 40.6406 420.314 41.1094ZM432.629 44.1562L435.07 35.9336H436.574L436.164 38.3945L433.703 46.5H432.355L432.629 44.1562ZM431.193 35.9336L433.098 44.1953L433.254 46.5H431.75L428.889 35.9336H431.193ZM438.859 44.0977L440.705 35.9336H443L440.148 46.5H438.645L438.859 44.0977ZM436.828 35.9336L439.24 44.0586L439.543 46.5H438.195L435.705 38.3848L435.295 35.9336H436.828ZM452.434 32.2812V46.5H449.982V32.2812H452.434ZM460.09 35.9336V37.6523H454.133V35.9336H460.09ZM455.852 33.3457H458.205V43.5801C458.205 43.9056 458.251 44.1562 458.342 44.332C458.439 44.5013 458.573 44.6152 458.742 44.6738C458.911 44.7324 459.11 44.7617 459.338 44.7617C459.501 44.7617 459.657 44.752 459.807 44.7324C459.956 44.7129 460.077 44.6934 460.168 44.6738L460.178 46.4707C459.982 46.5293 459.755 46.5814 459.494 46.627C459.24 46.6725 458.947 46.6953 458.615 46.6953C458.075 46.6953 457.596 46.6009 457.18 46.4121C456.763 46.2168 456.438 45.901 456.203 45.4648C455.969 45.0286 455.852 44.4492 455.852 43.7266V33.3457ZM470.686 43.3066L473.518 32.2812H475.002L474.836 35.123L471.809 46.5H470.266L470.686 43.3066ZM468.566 32.2812L470.861 43.2188L471.066 46.5H469.426L466.135 32.2812H468.566ZM478.215 43.1895L480.48 32.2812H482.922L479.631 46.5H477.99L478.215 43.1895ZM475.578 32.2812L478.381 43.3359L478.791 46.5H477.248L474.27 35.123L474.113 32.2812H475.578ZM483.742 41.334V41.1094C483.742 40.3477 483.853 39.6413 484.074 38.9902C484.296 38.3327 484.615 37.763 485.031 37.2812C485.454 36.793 485.969 36.4154 486.574 36.1484C487.186 35.875 487.876 35.7383 488.645 35.7383C489.419 35.7383 490.109 35.875 490.715 36.1484C491.327 36.4154 491.844 36.793 492.268 37.2812C492.691 37.763 493.013 38.3327 493.234 38.9902C493.456 39.6413 493.566 40.3477 493.566 41.1094V41.334C493.566 42.0957 493.456 42.8021 493.234 43.4531C493.013 44.1042 492.691 44.6738 492.268 45.1621C491.844 45.6439 491.33 46.0215 490.725 46.2949C490.119 46.5618 489.432 46.6953 488.664 46.6953C487.889 46.6953 487.196 46.5618 486.584 46.2949C485.979 46.0215 485.464 45.6439 485.041 45.1621C484.618 44.6738 484.296 44.1042 484.074 43.4531C483.853 42.8021 483.742 42.0957 483.742 41.334ZM486.096 41.1094V41.334C486.096 41.8092 486.145 42.2585 486.242 42.6816C486.34 43.1048 486.493 43.4759 486.701 43.7949C486.91 44.1139 487.176 44.3646 487.502 44.5469C487.827 44.7292 488.215 44.8203 488.664 44.8203C489.1 44.8203 489.478 44.7292 489.797 44.5469C490.122 44.3646 490.389 44.1139 490.598 43.7949C490.806 43.4759 490.959 43.1048 491.057 42.6816C491.161 42.2585 491.213 41.8092 491.213 41.334V41.1094C491.213 40.6406 491.161 40.1979 491.057 39.7812C490.959 39.3581 490.803 38.9837 490.588 38.6582C490.38 38.3327 490.113 38.0788 489.787 37.8965C489.468 37.7077 489.087 37.6133 488.645 37.6133C488.202 37.6133 487.818 37.7077 487.492 37.8965C487.173 38.0788 486.91 38.3327 486.701 38.6582C486.493 38.9837 486.34 39.3581 486.242 39.7812C486.145 40.1979 486.096 40.6406 486.096 41.1094ZM497.902 37.9453V46.5H495.549V35.9336H497.795L497.902 37.9453ZM501.135 35.8652L501.115 38.0527C500.972 38.0267 500.816 38.0072 500.646 37.9941C500.484 37.9811 500.321 37.9746 500.158 37.9746C499.755 37.9746 499.4 38.0332 499.094 38.1504C498.788 38.2611 498.531 38.4238 498.322 38.6387C498.12 38.847 497.964 39.1009 497.854 39.4004C497.743 39.6999 497.678 40.0352 497.658 40.4062L497.121 40.4453C497.121 39.7812 497.186 39.166 497.316 38.5996C497.447 38.0332 497.642 37.5352 497.902 37.1055C498.169 36.6758 498.501 36.3405 498.898 36.0996C499.302 35.8587 499.768 35.7383 500.295 35.7383C500.438 35.7383 500.591 35.7513 500.754 35.7773C500.923 35.8034 501.05 35.8327 501.135 35.8652ZM504.982 31.5V46.5H502.619V31.5H504.982ZM511.545 35.9336L506.945 41.0312L504.426 43.6094L503.811 41.6172L505.715 39.2637L508.703 35.9336H511.545ZM509.211 46.5L505.783 41.5391L507.268 39.8887L511.936 46.5H509.211ZM518.967 43.6387C518.967 43.4043 518.908 43.1927 518.791 43.0039C518.674 42.8086 518.449 42.6328 518.117 42.4766C517.792 42.3203 517.31 42.1771 516.672 42.0469C516.112 41.9232 515.598 41.7767 515.129 41.6074C514.667 41.4316 514.27 41.2201 513.938 40.9727C513.605 40.7253 513.348 40.4323 513.166 40.0938C512.984 39.7552 512.893 39.3646 512.893 38.9219C512.893 38.4922 512.987 38.0853 513.176 37.7012C513.365 37.3171 513.635 36.9785 513.986 36.6855C514.338 36.3926 514.764 36.1615 515.266 35.9922C515.773 35.8229 516.34 35.7383 516.965 35.7383C517.85 35.7383 518.609 35.888 519.24 36.1875C519.878 36.4805 520.367 36.8809 520.705 37.3887C521.044 37.89 521.213 38.4564 521.213 39.0879H518.859C518.859 38.8079 518.788 38.5475 518.645 38.3066C518.508 38.0592 518.299 37.8607 518.02 37.7109C517.74 37.5547 517.388 37.4766 516.965 37.4766C516.561 37.4766 516.226 37.5417 515.959 37.6719C515.699 37.7956 515.503 37.9583 515.373 38.1602C515.249 38.362 515.188 38.5833 515.188 38.8242C515.188 39 515.22 39.1595 515.285 39.3027C515.357 39.4395 515.474 39.5664 515.637 39.6836C515.799 39.7943 516.021 39.8984 516.301 39.9961C516.587 40.0938 516.945 40.1882 517.375 40.2793C518.182 40.4486 518.876 40.6667 519.455 40.9336C520.041 41.194 520.49 41.5326 520.803 41.9492C521.115 42.3594 521.271 42.8802 521.271 43.5117C521.271 43.9805 521.171 44.4102 520.969 44.8008C520.773 45.1849 520.487 45.5202 520.109 45.8066C519.732 46.0866 519.279 46.3047 518.752 46.4609C518.231 46.6172 517.645 46.6953 516.994 46.6953C516.037 46.6953 515.227 46.526 514.562 46.1875C513.898 45.8424 513.394 45.403 513.049 44.8691C512.71 44.3288 512.541 43.7689 512.541 43.1895H514.816C514.842 43.6257 514.963 43.974 515.178 44.2344C515.399 44.4883 515.673 44.6738 515.998 44.791C516.33 44.9017 516.672 44.957 517.023 44.957C517.447 44.957 517.801 44.9017 518.088 44.791C518.374 44.6738 518.592 44.5176 518.742 44.3223C518.892 44.1204 518.967 43.8926 518.967 43.6387Z" fill="#0F172A"/>
<path d="M554.846 41.1973H551.145V39.2539H554.846C555.49 39.2539 556.011 39.1497 556.408 38.9414C556.805 38.7331 557.095 38.4466 557.277 38.082C557.466 37.7109 557.561 37.2878 557.561 36.8125C557.561 36.3633 557.466 35.9434 557.277 35.5527C557.095 35.1556 556.805 34.8366 556.408 34.5957C556.011 34.3548 555.49 34.2344 554.846 34.2344H551.896V46.5H549.445V32.2812H554.846C555.946 32.2812 556.88 32.4766 557.648 32.8672C558.423 33.2513 559.012 33.7852 559.416 34.4688C559.82 35.1458 560.021 35.9206 560.021 36.793C560.021 37.7109 559.82 38.4987 559.416 39.1562C559.012 39.8138 558.423 40.3184 557.648 40.6699C556.88 41.0215 555.946 41.1973 554.846 41.1973ZM561.398 41.334V41.1094C561.398 40.3477 561.509 39.6413 561.73 38.9902C561.952 38.3327 562.271 37.763 562.688 37.2812C563.111 36.793 563.625 36.4154 564.23 36.1484C564.842 35.875 565.533 35.7383 566.301 35.7383C567.076 35.7383 567.766 35.875 568.371 36.1484C568.983 36.4154 569.501 36.793 569.924 37.2812C570.347 37.763 570.669 38.3327 570.891 38.9902C571.112 39.6413 571.223 40.3477 571.223 41.1094V41.334C571.223 42.0957 571.112 42.8021 570.891 43.4531C570.669 44.1042 570.347 44.6738 569.924 45.1621C569.501 45.6439 568.986 46.0215 568.381 46.2949C567.775 46.5618 567.089 46.6953 566.32 46.6953C565.546 46.6953 564.852 46.5618 564.24 46.2949C563.635 46.0215 563.12 45.6439 562.697 45.1621C562.274 44.6738 561.952 44.1042 561.73 43.4531C561.509 42.8021 561.398 42.0957 561.398 41.334ZM563.752 41.1094V41.334C563.752 41.8092 563.801 42.2585 563.898 42.6816C563.996 43.1048 564.149 43.4759 564.357 43.7949C564.566 44.1139 564.833 44.3646 565.158 44.5469C565.484 44.7292 565.871 44.8203 566.32 44.8203C566.757 44.8203 567.134 44.7292 567.453 44.5469C567.779 44.3646 568.046 44.1139 568.254 43.7949C568.462 43.4759 568.615 43.1048 568.713 42.6816C568.817 42.2585 568.869 41.8092 568.869 41.334V41.1094C568.869 40.6406 568.817 40.1979 568.713 39.7812C568.615 39.3581 568.459 38.9837 568.244 38.6582C568.036 38.3327 567.769 38.0788 567.443 37.8965C567.124 37.7077 566.743 37.6133 566.301 37.6133C565.858 37.6133 565.474 37.7077 565.148 37.8965C564.829 38.0788 564.566 38.3327 564.357 38.6582C564.149 38.9837 563.996 39.3581 563.898 39.7812C563.801 40.1979 563.752 40.6406 563.752 41.1094ZM579.123 43.6387C579.123 43.4043 579.064 43.1927 578.947 43.0039C578.83 42.8086 578.605 42.6328 578.273 42.4766C577.948 42.3203 577.466 42.1771 576.828 42.0469C576.268 41.9232 575.754 41.7767 575.285 41.6074C574.823 41.4316 574.426 41.2201 574.094 40.9727C573.762 40.7253 573.505 40.4323 573.322 40.0938C573.14 39.7552 573.049 39.3646 573.049 38.9219C573.049 38.4922 573.143 38.0853 573.332 37.7012C573.521 37.3171 573.791 36.9785 574.143 36.6855C574.494 36.3926 574.921 36.1615 575.422 35.9922C575.93 35.8229 576.496 35.7383 577.121 35.7383C578.007 35.7383 578.765 35.888 579.396 36.1875C580.035 36.4805 580.523 36.8809 580.861 37.3887C581.2 37.89 581.369 38.4564 581.369 39.0879H579.016C579.016 38.8079 578.944 38.5475 578.801 38.3066C578.664 38.0592 578.456 37.8607 578.176 37.7109C577.896 37.5547 577.544 37.4766 577.121 37.4766C576.717 37.4766 576.382 37.5417 576.115 37.6719C575.855 37.7956 575.66 37.9583 575.529 38.1602C575.406 38.362 575.344 38.5833 575.344 38.8242C575.344 39 575.376 39.1595 575.441 39.3027C575.513 39.4395 575.63 39.5664 575.793 39.6836C575.956 39.7943 576.177 39.8984 576.457 39.9961C576.743 40.0938 577.102 40.1882 577.531 40.2793C578.339 40.4486 579.032 40.6667 579.611 40.9336C580.197 41.194 580.646 41.5326 580.959 41.9492C581.271 42.3594 581.428 42.8802 581.428 43.5117C581.428 43.9805 581.327 44.4102 581.125 44.8008C580.93 45.1849 580.643 45.5202 580.266 45.8066C579.888 46.0866 579.436 46.3047 578.908 46.4609C578.387 46.6172 577.801 46.6953 577.15 46.6953C576.193 46.6953 575.383 46.526 574.719 46.1875C574.055 45.8424 573.55 45.403 573.205 44.8691C572.867 44.3288 572.697 43.7689 572.697 43.1895H574.973C574.999 43.6257 575.119 43.974 575.334 44.2344C575.555 44.4883 575.829 44.6738 576.154 44.791C576.486 44.9017 576.828 44.957 577.18 44.957C577.603 44.957 577.958 44.9017 578.244 44.791C578.531 44.6738 578.749 44.5176 578.898 44.3223C579.048 44.1204 579.123 43.8926 579.123 43.6387ZM588.332 35.9336V37.6523H582.375V35.9336H588.332ZM584.094 33.3457H586.447V43.5801C586.447 43.9056 586.493 44.1562 586.584 44.332C586.682 44.5013 586.815 44.6152 586.984 44.6738C587.154 44.7324 587.352 44.7617 587.58 44.7617C587.743 44.7617 587.899 44.752 588.049 44.7324C588.199 44.7129 588.319 44.6934 588.41 44.6738L588.42 46.4707C588.225 46.5293 587.997 46.5814 587.736 46.627C587.482 46.6725 587.189 46.6953 586.857 46.6953C586.317 46.6953 585.839 46.6009 585.422 46.4121C585.005 46.2168 584.68 45.901 584.445 45.4648C584.211 45.0286 584.094 44.4492 584.094 43.7266V33.3457ZM601.086 44.3809V39.3418C601.086 38.9642 601.018 38.6387 600.881 38.3652C600.744 38.0918 600.536 37.8802 600.256 37.7305C599.982 37.5807 599.637 37.5059 599.221 37.5059C598.837 37.5059 598.505 37.571 598.225 37.7012C597.945 37.8314 597.727 38.0072 597.57 38.2285C597.414 38.4499 597.336 38.7005 597.336 38.9805H594.992C594.992 38.5638 595.093 38.1602 595.295 37.7695C595.497 37.3789 595.79 37.0306 596.174 36.7246C596.558 36.4186 597.017 36.1777 597.551 36.002C598.085 35.8262 598.684 35.7383 599.348 35.7383C600.142 35.7383 600.845 35.8717 601.457 36.1387C602.076 36.4056 602.561 36.8092 602.912 37.3496C603.27 37.8835 603.449 38.554 603.449 39.3613V44.0586C603.449 44.5404 603.482 44.9733 603.547 45.3574C603.618 45.735 603.719 46.0638 603.85 46.3438V46.5H601.438C601.327 46.2461 601.239 45.9238 601.174 45.5332C601.115 45.1361 601.086 44.752 601.086 44.3809ZM601.428 40.0742L601.447 41.5293H599.758C599.322 41.5293 598.938 41.5716 598.605 41.6562C598.273 41.7344 597.997 41.8516 597.775 42.0078C597.554 42.1641 597.388 42.3529 597.277 42.5742C597.167 42.7956 597.111 43.0462 597.111 43.3262C597.111 43.6061 597.176 43.8633 597.307 44.0977C597.437 44.3255 597.626 44.5046 597.873 44.6348C598.127 44.765 598.433 44.8301 598.791 44.8301C599.273 44.8301 599.693 44.7324 600.051 44.5371C600.415 44.3353 600.702 44.0911 600.91 43.8047C601.118 43.5117 601.229 43.235 601.242 42.9746L602.004 44.0195C601.926 44.2865 601.792 44.5729 601.604 44.8789C601.415 45.1849 601.167 45.4779 600.861 45.7578C600.562 46.0312 600.201 46.2559 599.777 46.4316C599.361 46.6074 598.879 46.6953 598.332 46.6953C597.642 46.6953 597.027 46.5586 596.486 46.2852C595.946 46.0052 595.523 45.6309 595.217 45.1621C594.911 44.6868 594.758 44.1497 594.758 43.5508C594.758 42.9909 594.862 42.4961 595.07 42.0664C595.285 41.6302 595.598 41.2656 596.008 40.9727C596.424 40.6797 596.932 40.4583 597.531 40.3086C598.13 40.1523 598.814 40.0742 599.582 40.0742H601.428ZM616.506 32.2812V46.5H614.074V32.2812H616.506ZM620.969 32.2812V34.2344H609.65V32.2812H620.969ZM627.258 44.3809V39.3418C627.258 38.9642 627.189 38.6387 627.053 38.3652C626.916 38.0918 626.708 37.8802 626.428 37.7305C626.154 37.5807 625.809 37.5059 625.393 37.5059C625.008 37.5059 624.676 37.571 624.396 37.7012C624.117 37.8314 623.898 38.0072 623.742 38.2285C623.586 38.4499 623.508 38.7005 623.508 38.9805H621.164C621.164 38.5638 621.265 38.1602 621.467 37.7695C621.669 37.3789 621.962 37.0306 622.346 36.7246C622.73 36.4186 623.189 36.1777 623.723 36.002C624.257 35.8262 624.855 35.7383 625.52 35.7383C626.314 35.7383 627.017 35.8717 627.629 36.1387C628.247 36.4056 628.732 36.8092 629.084 37.3496C629.442 37.8835 629.621 38.554 629.621 39.3613V44.0586C629.621 44.5404 629.654 44.9733 629.719 45.3574C629.79 45.735 629.891 46.0638 630.021 46.3438V46.5H627.609C627.499 46.2461 627.411 45.9238 627.346 45.5332C627.287 45.1361 627.258 44.752 627.258 44.3809ZM627.6 40.0742L627.619 41.5293H625.93C625.493 41.5293 625.109 41.5716 624.777 41.6562C624.445 41.7344 624.169 41.8516 623.947 42.0078C623.726 42.1641 623.56 42.3529 623.449 42.5742C623.339 42.7956 623.283 43.0462 623.283 43.3262C623.283 43.6061 623.348 43.8633 623.479 44.0977C623.609 44.3255 623.798 44.5046 624.045 44.6348C624.299 44.765 624.605 44.8301 624.963 44.8301C625.445 44.8301 625.865 44.7324 626.223 44.5371C626.587 44.3353 626.874 44.0911 627.082 43.8047C627.29 43.5117 627.401 43.235 627.414 42.9746L628.176 44.0195C628.098 44.2865 627.964 44.5729 627.775 44.8789C627.587 45.1849 627.339 45.4779 627.033 45.7578C626.734 46.0312 626.372 46.2559 625.949 46.4316C625.533 46.6074 625.051 46.6953 624.504 46.6953C623.814 46.6953 623.199 46.5586 622.658 46.2852C622.118 46.0052 621.695 45.6309 621.389 45.1621C621.083 44.6868 620.93 44.1497 620.93 43.5508C620.93 42.9909 621.034 42.4961 621.242 42.0664C621.457 41.6302 621.77 41.2656 622.18 40.9727C622.596 40.6797 623.104 40.4583 623.703 40.3086C624.302 40.1523 624.986 40.0742 625.754 40.0742H627.6ZM638.01 43.6387C638.01 43.4043 637.951 43.1927 637.834 43.0039C637.717 42.8086 637.492 42.6328 637.16 42.4766C636.835 42.3203 636.353 42.1771 635.715 42.0469C635.155 41.9232 634.641 41.7767 634.172 41.6074C633.71 41.4316 633.312 41.2201 632.98 40.9727C632.648 40.7253 632.391 40.4323 632.209 40.0938C632.027 39.7552 631.936 39.3646 631.936 38.9219C631.936 38.4922 632.03 38.0853 632.219 37.7012C632.408 37.3171 632.678 36.9785 633.029 36.6855C633.381 36.3926 633.807 36.1615 634.309 35.9922C634.816 35.8229 635.383 35.7383 636.008 35.7383C636.893 35.7383 637.652 35.888 638.283 36.1875C638.921 36.4805 639.41 36.8809 639.748 37.3887C640.087 37.89 640.256 38.4564 640.256 39.0879H637.902C637.902 38.8079 637.831 38.5475 637.688 38.3066C637.551 38.0592 637.342 37.8607 637.062 37.7109C636.783 37.5547 636.431 37.4766 636.008 37.4766C635.604 37.4766 635.269 37.5417 635.002 37.6719C634.742 37.7956 634.546 37.9583 634.416 38.1602C634.292 38.362 634.23 38.5833 634.23 38.8242C634.23 39 634.263 39.1595 634.328 39.3027C634.4 39.4395 634.517 39.5664 634.68 39.6836C634.842 39.7943 635.064 39.8984 635.344 39.9961C635.63 40.0938 635.988 40.1882 636.418 40.2793C637.225 40.4486 637.919 40.6667 638.498 40.9336C639.084 41.194 639.533 41.5326 639.846 41.9492C640.158 42.3594 640.314 42.8802 640.314 43.5117C640.314 43.9805 640.214 44.4102 640.012 44.8008C639.816 45.1849 639.53 45.5202 639.152 45.8066C638.775 46.0866 638.322 46.3047 637.795 46.4609C637.274 46.6172 636.688 46.6953 636.037 46.6953C635.08 46.6953 634.27 46.526 633.605 46.1875C632.941 45.8424 632.437 45.403 632.092 44.8691C631.753 44.3288 631.584 43.7689 631.584 43.1895H633.859C633.885 43.6257 634.006 43.974 634.221 44.2344C634.442 44.4883 634.715 44.6738 635.041 44.791C635.373 44.9017 635.715 44.957 636.066 44.957C636.49 44.957 636.844 44.9017 637.131 44.791C637.417 44.6738 637.635 44.5176 637.785 44.3223C637.935 44.1204 638.01 43.8926 638.01 43.6387ZM644.748 31.5V46.5H642.385V31.5H644.748ZM651.311 35.9336L646.711 41.0312L644.191 43.6094L643.576 41.6172L645.48 39.2637L648.469 35.9336H651.311ZM648.977 46.5L645.549 41.5391L647.033 39.8887L651.701 46.5H648.977Z" fill="#0F172A"/>
<path d="M683.777 40.0742H680.154L680.135 38.2871H683.299C683.833 38.2871 684.285 38.209 684.656 38.0527C685.034 37.89 685.32 37.6589 685.516 37.3594C685.711 37.0534 685.809 36.6855 685.809 36.2559C685.809 35.7806 685.717 35.3932 685.535 35.0938C685.353 34.7943 685.073 34.5762 684.695 34.4395C684.324 34.3027 683.849 34.2344 683.27 34.2344H680.896V46.5H678.445V32.2812H683.27C684.051 32.2812 684.747 32.3561 685.359 32.5059C685.978 32.6556 686.502 32.89 686.932 33.209C687.368 33.5215 687.697 33.9186 687.918 34.4004C688.146 34.8822 688.26 35.4551 688.26 36.1191C688.26 36.7051 688.12 37.2422 687.84 37.7305C687.56 38.2122 687.146 38.6061 686.6 38.9121C686.053 39.2181 685.372 39.4004 684.559 39.459L683.777 40.0742ZM683.67 46.5H679.383L680.486 44.5566H683.67C684.223 44.5566 684.686 44.4655 685.057 44.2832C685.428 44.0944 685.704 43.8372 685.887 43.5117C686.076 43.1797 686.17 42.7923 686.17 42.3496C686.17 41.8874 686.089 41.487 685.926 41.1484C685.763 40.8034 685.506 40.5397 685.154 40.3574C684.803 40.1686 684.344 40.0742 683.777 40.0742H681.023L681.043 38.2871H684.627L685.184 38.9609C685.965 38.987 686.606 39.1595 687.107 39.4785C687.615 39.7975 687.993 40.2109 688.24 40.7188C688.488 41.2266 688.611 41.7734 688.611 42.3594C688.611 43.2643 688.413 44.0228 688.016 44.6348C687.625 45.2467 687.062 45.7122 686.326 46.0312C685.59 46.3438 684.705 46.5 683.67 46.5ZM695.506 46.6953C694.725 46.6953 694.018 46.5684 693.387 46.3145C692.762 46.054 692.228 45.6927 691.785 45.2305C691.349 44.7682 691.014 44.2246 690.779 43.5996C690.545 42.9746 690.428 42.3008 690.428 41.5781V41.1875C690.428 40.3607 690.548 39.612 690.789 38.9414C691.03 38.2708 691.365 37.6979 691.795 37.2227C692.225 36.7409 692.732 36.373 693.318 36.1191C693.904 35.8652 694.539 35.7383 695.223 35.7383C695.978 35.7383 696.639 35.8652 697.205 36.1191C697.771 36.373 698.24 36.7311 698.611 37.1934C698.989 37.6491 699.269 38.1927 699.451 38.8242C699.64 39.4557 699.734 40.1523 699.734 40.9141V41.9199H691.57V40.2305H697.41V40.0449C697.397 39.6217 697.312 39.2246 697.156 38.8535C697.007 38.4824 696.775 38.1829 696.463 37.9551C696.15 37.7272 695.734 37.6133 695.213 37.6133C694.822 37.6133 694.474 37.6979 694.168 37.8672C693.868 38.0299 693.618 38.2676 693.416 38.5801C693.214 38.8926 693.058 39.2702 692.947 39.7129C692.843 40.1491 692.791 40.6406 692.791 41.1875V41.5781C692.791 42.0404 692.853 42.4701 692.977 42.8672C693.107 43.2578 693.296 43.5996 693.543 43.8926C693.79 44.1855 694.09 44.4167 694.441 44.5859C694.793 44.7487 695.193 44.8301 695.643 44.8301C696.209 44.8301 696.714 44.7161 697.156 44.4883C697.599 44.2604 697.983 43.9382 698.309 43.5215L699.549 44.7227C699.321 45.0547 699.025 45.3737 698.66 45.6797C698.296 45.9792 697.85 46.2233 697.322 46.4121C696.801 46.6009 696.196 46.6953 695.506 46.6953ZM705.887 44.8203C706.271 44.8203 706.616 44.7454 706.922 44.5957C707.234 44.4395 707.485 44.2246 707.674 43.9512C707.869 43.6777 707.977 43.362 707.996 43.0039H710.213C710.2 43.6875 709.998 44.3092 709.607 44.8691C709.217 45.429 708.699 45.875 708.055 46.207C707.41 46.5326 706.697 46.6953 705.916 46.6953C705.109 46.6953 704.406 46.5586 703.807 46.2852C703.208 46.0052 702.71 45.6211 702.312 45.1328C701.915 44.6445 701.616 44.0814 701.414 43.4434C701.219 42.8053 701.121 42.1217 701.121 41.3926V41.0508C701.121 40.3216 701.219 39.638 701.414 39C701.616 38.3555 701.915 37.7891 702.312 37.3008C702.71 36.8125 703.208 36.4316 703.807 36.1582C704.406 35.8783 705.105 35.7383 705.906 35.7383C706.753 35.7383 707.495 35.9076 708.133 36.2461C708.771 36.5781 709.272 37.0436 709.637 37.6426C710.008 38.235 710.2 38.9251 710.213 39.7129H707.996C707.977 39.3223 707.879 38.9707 707.703 38.6582C707.534 38.3392 707.293 38.0853 706.98 37.8965C706.674 37.7077 706.307 37.6133 705.877 37.6133C705.402 37.6133 705.008 37.7109 704.695 37.9062C704.383 38.0951 704.139 38.3555 703.963 38.6875C703.787 39.013 703.66 39.3809 703.582 39.791C703.51 40.1947 703.475 40.6146 703.475 41.0508V41.3926C703.475 41.8288 703.51 42.252 703.582 42.6621C703.654 43.0723 703.777 43.4401 703.953 43.7656C704.135 44.0846 704.383 44.3418 704.695 44.5371C705.008 44.7259 705.405 44.8203 705.887 44.8203ZM711.57 41.334V41.1094C711.57 40.3477 711.681 39.6413 711.902 38.9902C712.124 38.3327 712.443 37.763 712.859 37.2812C713.283 36.793 713.797 36.4154 714.402 36.1484C715.014 35.875 715.704 35.7383 716.473 35.7383C717.247 35.7383 717.938 35.875 718.543 36.1484C719.155 36.4154 719.673 36.793 720.096 37.2812C720.519 37.763 720.841 38.3327 721.062 38.9902C721.284 39.6413 721.395 40.3477 721.395 41.1094V41.334C721.395 42.0957 721.284 42.8021 721.062 43.4531C720.841 44.1042 720.519 44.6738 720.096 45.1621C719.673 45.6439 719.158 46.0215 718.553 46.2949C717.947 46.5618 717.26 46.6953 716.492 46.6953C715.717 46.6953 715.024 46.5618 714.412 46.2949C713.807 46.0215 713.292 45.6439 712.869 45.1621C712.446 44.6738 712.124 44.1042 711.902 43.4531C711.681 42.8021 711.57 42.0957 711.57 41.334ZM713.924 41.1094V41.334C713.924 41.8092 713.973 42.2585 714.07 42.6816C714.168 43.1048 714.321 43.4759 714.529 43.7949C714.738 44.1139 715.005 44.3646 715.33 44.5469C715.656 44.7292 716.043 44.8203 716.492 44.8203C716.928 44.8203 717.306 44.7292 717.625 44.5469C717.951 44.3646 718.217 44.1139 718.426 43.7949C718.634 43.4759 718.787 43.1048 718.885 42.6816C718.989 42.2585 719.041 41.8092 719.041 41.334V41.1094C719.041 40.6406 718.989 40.1979 718.885 39.7812C718.787 39.3581 718.631 38.9837 718.416 38.6582C718.208 38.3327 717.941 38.0788 717.615 37.8965C717.296 37.7077 716.915 37.6133 716.473 37.6133C716.03 37.6133 715.646 37.7077 715.32 37.8965C715.001 38.0788 714.738 38.3327 714.529 38.6582C714.321 38.9837 714.168 39.3581 714.07 39.7812C713.973 40.1979 713.924 40.6406 713.924 41.1094ZM725.721 38.082V46.5H723.367V35.9336H725.584L725.721 38.082ZM725.34 40.8262L724.539 40.8164C724.539 40.0872 724.63 39.4134 724.812 38.7949C724.995 38.1764 725.262 37.6393 725.613 37.1836C725.965 36.7214 726.401 36.3665 726.922 36.1191C727.449 35.8652 728.058 35.7383 728.748 35.7383C729.23 35.7383 729.669 35.8099 730.066 35.9531C730.47 36.0898 730.818 36.3079 731.111 36.6074C731.411 36.9069 731.639 37.291 731.795 37.7598C731.958 38.2285 732.039 38.7949 732.039 39.459V46.5H729.686V39.6641C729.686 39.1497 729.607 38.7461 729.451 38.4531C729.301 38.1602 729.083 37.9518 728.797 37.8281C728.517 37.6979 728.182 37.6328 727.791 37.6328C727.348 37.6328 726.971 37.7174 726.658 37.8867C726.352 38.056 726.102 38.2871 725.906 38.5801C725.711 38.873 725.568 39.2116 725.477 39.5957C725.385 39.9798 725.34 40.39 725.34 40.8262ZM731.893 40.2012L730.789 40.4453C730.789 39.8073 730.877 39.2051 731.053 38.6387C731.235 38.0658 731.499 37.5645 731.844 37.1348C732.195 36.6986 732.628 36.3568 733.143 36.1094C733.657 35.862 734.246 35.7383 734.91 35.7383C735.451 35.7383 735.932 35.8132 736.355 35.9629C736.785 36.1061 737.15 36.334 737.449 36.6465C737.749 36.959 737.977 37.3659 738.133 37.8672C738.289 38.362 738.367 38.9609 738.367 39.6641V46.5H736.004V39.6543C736.004 39.1204 735.926 38.707 735.77 38.4141C735.62 38.1211 735.405 37.9193 735.125 37.8086C734.845 37.6914 734.51 37.6328 734.119 37.6328C733.755 37.6328 733.432 37.7012 733.152 37.8379C732.879 37.9681 732.648 38.1536 732.459 38.3945C732.27 38.6289 732.127 38.8991 732.029 39.2051C731.938 39.5111 731.893 39.8431 731.893 40.2012ZM745.447 46.6953C744.666 46.6953 743.96 46.5684 743.328 46.3145C742.703 46.054 742.169 45.6927 741.727 45.2305C741.29 44.7682 740.955 44.2246 740.721 43.5996C740.486 42.9746 740.369 42.3008 740.369 41.5781V41.1875C740.369 40.3607 740.49 39.612 740.73 38.9414C740.971 38.2708 741.307 37.6979 741.736 37.2227C742.166 36.7409 742.674 36.373 743.26 36.1191C743.846 35.8652 744.48 35.7383 745.164 35.7383C745.919 35.7383 746.58 35.8652 747.146 36.1191C747.713 36.373 748.182 36.7311 748.553 37.1934C748.93 37.6491 749.21 38.1927 749.393 38.8242C749.581 39.4557 749.676 40.1523 749.676 40.9141V41.9199H741.512V40.2305H747.352V40.0449C747.339 39.6217 747.254 39.2246 747.098 38.8535C746.948 38.4824 746.717 38.1829 746.404 37.9551C746.092 37.7272 745.675 37.6133 745.154 37.6133C744.764 37.6133 744.415 37.6979 744.109 37.8672C743.81 38.0299 743.559 38.2676 743.357 38.5801C743.156 38.8926 742.999 39.2702 742.889 39.7129C742.785 40.1491 742.732 40.6406 742.732 41.1875V41.5781C742.732 42.0404 742.794 42.4701 742.918 42.8672C743.048 43.2578 743.237 43.5996 743.484 43.8926C743.732 44.1855 744.031 44.4167 744.383 44.5859C744.734 44.7487 745.135 44.8301 745.584 44.8301C746.15 44.8301 746.655 44.7161 747.098 44.4883C747.54 44.2604 747.924 43.9382 748.25 43.5215L749.49 44.7227C749.262 45.0547 748.966 45.3737 748.602 45.6797C748.237 45.9792 747.791 46.2233 747.264 46.4121C746.743 46.6009 746.137 46.6953 745.447 46.6953ZM762.449 44.3809V39.3418C762.449 38.9642 762.381 38.6387 762.244 38.3652C762.107 38.0918 761.899 37.8802 761.619 37.7305C761.346 37.5807 761.001 37.5059 760.584 37.5059C760.2 37.5059 759.868 37.571 759.588 37.7012C759.308 37.8314 759.09 38.0072 758.934 38.2285C758.777 38.4499 758.699 38.7005 758.699 38.9805H756.355C756.355 38.5638 756.456 38.1602 756.658 37.7695C756.86 37.3789 757.153 37.0306 757.537 36.7246C757.921 36.4186 758.38 36.1777 758.914 36.002C759.448 35.8262 760.047 35.7383 760.711 35.7383C761.505 35.7383 762.208 35.8717 762.82 36.1387C763.439 36.4056 763.924 36.8092 764.275 37.3496C764.633 37.8835 764.812 38.554 764.812 39.3613V44.0586C764.812 44.5404 764.845 44.9733 764.91 45.3574C764.982 45.735 765.083 46.0638 765.213 46.3438V46.5H762.801C762.69 46.2461 762.602 45.9238 762.537 45.5332C762.479 45.1361 762.449 44.752 762.449 44.3809ZM762.791 40.0742L762.811 41.5293H761.121C760.685 41.5293 760.301 41.5716 759.969 41.6562C759.637 41.7344 759.36 41.8516 759.139 42.0078C758.917 42.1641 758.751 42.3529 758.641 42.5742C758.53 42.7956 758.475 43.0462 758.475 43.3262C758.475 43.6061 758.54 43.8633 758.67 44.0977C758.8 44.3255 758.989 44.5046 759.236 44.6348C759.49 44.765 759.796 44.8301 760.154 44.8301C760.636 44.8301 761.056 44.7324 761.414 44.5371C761.779 44.3353 762.065 44.0911 762.273 43.8047C762.482 43.5117 762.592 43.235 762.605 42.9746L763.367 44.0195C763.289 44.2865 763.156 44.5729 762.967 44.8789C762.778 45.1849 762.531 45.4779 762.225 45.7578C761.925 46.0312 761.564 46.2559 761.141 46.4316C760.724 46.6074 760.242 46.6953 759.695 46.6953C759.005 46.6953 758.39 46.5586 757.85 46.2852C757.309 46.0052 756.886 45.6309 756.58 45.1621C756.274 44.6868 756.121 44.1497 756.121 43.5508C756.121 42.9909 756.225 42.4961 756.434 42.0664C756.648 41.6302 756.961 41.2656 757.371 40.9727C757.788 40.6797 758.296 40.4583 758.895 40.3086C759.493 40.1523 760.177 40.0742 760.945 40.0742H762.791ZM780.887 41.8711H783.328C783.25 42.8021 782.99 43.6322 782.547 44.3613C782.104 45.084 781.482 45.6536 780.682 46.0703C779.881 46.487 778.908 46.6953 777.762 46.6953C776.883 46.6953 776.092 46.5391 775.389 46.2266C774.686 45.9076 774.083 45.4583 773.582 44.8789C773.081 44.293 772.697 43.5866 772.43 42.7598C772.169 41.9329 772.039 41.0085 772.039 39.9863V38.8047C772.039 37.7826 772.173 36.8581 772.439 36.0312C772.713 35.2044 773.104 34.498 773.611 33.9121C774.119 33.3197 774.728 32.8672 775.438 32.5547C776.154 32.2422 776.958 32.0859 777.85 32.0859C778.982 32.0859 779.939 32.2943 780.721 32.7109C781.502 33.1276 782.107 33.7038 782.537 34.4395C782.973 35.1751 783.24 36.0182 783.338 36.9688H780.896C780.831 36.3568 780.688 35.8327 780.467 35.3965C780.252 34.9603 779.933 34.6283 779.51 34.4004C779.087 34.166 778.533 34.0488 777.85 34.0488C777.29 34.0488 776.801 34.153 776.385 34.3613C775.968 34.5697 775.62 34.8757 775.34 35.2793C775.06 35.6829 774.848 36.181 774.705 36.7734C774.568 37.3594 774.5 38.0299 774.5 38.7852V39.9863C774.5 40.7025 774.562 41.3535 774.686 41.9395C774.816 42.5189 775.011 43.0169 775.271 43.4336C775.538 43.8503 775.877 44.1725 776.287 44.4004C776.697 44.6283 777.189 44.7422 777.762 44.7422C778.458 44.7422 779.021 44.6315 779.451 44.4102C779.887 44.1888 780.216 43.8665 780.438 43.4434C780.665 43.0137 780.815 42.4896 780.887 41.8711ZM784.871 41.334V41.1094C784.871 40.3477 784.982 39.6413 785.203 38.9902C785.424 38.3327 785.743 37.763 786.16 37.2812C786.583 36.793 787.098 36.4154 787.703 36.1484C788.315 35.875 789.005 35.7383 789.773 35.7383C790.548 35.7383 791.238 35.875 791.844 36.1484C792.456 36.4154 792.973 36.793 793.396 37.2812C793.82 37.763 794.142 38.3327 794.363 38.9902C794.585 39.6413 794.695 40.3477 794.695 41.1094V41.334C794.695 42.0957 794.585 42.8021 794.363 43.4531C794.142 44.1042 793.82 44.6738 793.396 45.1621C792.973 45.6439 792.459 46.0215 791.854 46.2949C791.248 46.5618 790.561 46.6953 789.793 46.6953C789.018 46.6953 788.325 46.5618 787.713 46.2949C787.107 46.0215 786.593 45.6439 786.17 45.1621C785.747 44.6738 785.424 44.1042 785.203 43.4531C784.982 42.8021 784.871 42.0957 784.871 41.334ZM787.225 41.1094V41.334C787.225 41.8092 787.273 42.2585 787.371 42.6816C787.469 43.1048 787.622 43.4759 787.83 43.7949C788.038 44.1139 788.305 44.3646 788.631 44.5469C788.956 44.7292 789.344 44.8203 789.793 44.8203C790.229 44.8203 790.607 44.7292 790.926 44.5469C791.251 44.3646 791.518 44.1139 791.727 43.7949C791.935 43.4759 792.088 43.1048 792.186 42.6816C792.29 42.2585 792.342 41.8092 792.342 41.334V41.1094C792.342 40.6406 792.29 40.1979 792.186 39.7812C792.088 39.3581 791.932 38.9837 791.717 38.6582C791.508 38.3327 791.242 38.0788 790.916 37.8965C790.597 37.7077 790.216 37.6133 789.773 37.6133C789.331 37.6133 788.947 37.7077 788.621 37.8965C788.302 38.0788 788.038 38.3327 787.83 38.6582C787.622 38.9837 787.469 39.3581 787.371 39.7812C787.273 40.1979 787.225 40.6406 787.225 41.1094ZM799.002 38.1895V46.5H796.648V35.9336H798.865L799.002 38.1895ZM798.582 40.8262L797.82 40.8164C797.827 40.0677 797.931 39.3809 798.133 38.7559C798.341 38.1309 798.628 37.5938 798.992 37.1445C799.363 36.6953 799.806 36.3503 800.32 36.1094C800.835 35.862 801.408 35.7383 802.039 35.7383C802.547 35.7383 803.006 35.8099 803.416 35.9531C803.833 36.0898 804.188 36.3145 804.48 36.627C804.78 36.9395 805.008 37.3464 805.164 37.8477C805.32 38.3424 805.398 38.9512 805.398 39.6738V46.5H803.035V39.6641C803.035 39.1562 802.96 38.7559 802.811 38.4629C802.667 38.1634 802.456 37.9518 802.176 37.8281C801.902 37.6979 801.561 37.6328 801.15 37.6328C800.747 37.6328 800.385 37.7174 800.066 37.8867C799.747 38.056 799.477 38.2871 799.256 38.5801C799.041 38.873 798.875 39.2116 798.758 39.5957C798.641 39.9798 798.582 40.39 798.582 40.8262ZM812.645 35.9336V37.6523H806.688V35.9336H812.645ZM808.406 33.3457H810.76V43.5801C810.76 43.9056 810.805 44.1562 810.896 44.332C810.994 44.5013 811.128 44.6152 811.297 44.6738C811.466 44.7324 811.665 44.7617 811.893 44.7617C812.055 44.7617 812.212 44.752 812.361 44.7324C812.511 44.7129 812.632 44.6934 812.723 44.6738L812.732 46.4707C812.537 46.5293 812.309 46.5814 812.049 46.627C811.795 46.6725 811.502 46.6953 811.17 46.6953C810.63 46.6953 810.151 46.6009 809.734 46.4121C809.318 46.2168 808.992 45.901 808.758 45.4648C808.523 45.0286 808.406 44.4492 808.406 43.7266V33.3457ZM816.824 37.9453V46.5H814.471V35.9336H816.717L816.824 37.9453ZM820.057 35.8652L820.037 38.0527C819.894 38.0267 819.738 38.0072 819.568 37.9941C819.406 37.9811 819.243 37.9746 819.08 37.9746C818.676 37.9746 818.322 38.0332 818.016 38.1504C817.71 38.2611 817.452 38.4238 817.244 38.6387C817.042 38.847 816.886 39.1009 816.775 39.4004C816.665 39.6999 816.6 40.0352 816.58 40.4062L816.043 40.4453C816.043 39.7812 816.108 39.166 816.238 38.5996C816.368 38.0332 816.564 37.5352 816.824 37.1055C817.091 36.6758 817.423 36.3405 817.82 36.0996C818.224 35.8587 818.689 35.7383 819.217 35.7383C819.36 35.7383 819.513 35.7513 819.676 35.7773C819.845 35.8034 819.972 35.8327 820.057 35.8652ZM827.137 44.3809V39.3418C827.137 38.9642 827.068 38.6387 826.932 38.3652C826.795 38.0918 826.587 37.8802 826.307 37.7305C826.033 37.5807 825.688 37.5059 825.271 37.5059C824.887 37.5059 824.555 37.571 824.275 37.7012C823.995 37.8314 823.777 38.0072 823.621 38.2285C823.465 38.4499 823.387 38.7005 823.387 38.9805H821.043C821.043 38.5638 821.144 38.1602 821.346 37.7695C821.548 37.3789 821.84 37.0306 822.225 36.7246C822.609 36.4186 823.068 36.1777 823.602 36.002C824.135 35.8262 824.734 35.7383 825.398 35.7383C826.193 35.7383 826.896 35.8717 827.508 36.1387C828.126 36.4056 828.611 36.8092 828.963 37.3496C829.321 37.8835 829.5 38.554 829.5 39.3613V44.0586C829.5 44.5404 829.533 44.9733 829.598 45.3574C829.669 45.735 829.77 46.0638 829.9 46.3438V46.5H827.488C827.378 46.2461 827.29 45.9238 827.225 45.5332C827.166 45.1361 827.137 44.752 827.137 44.3809ZM827.479 40.0742L827.498 41.5293H825.809C825.372 41.5293 824.988 41.5716 824.656 41.6562C824.324 41.7344 824.048 41.8516 823.826 42.0078C823.605 42.1641 823.439 42.3529 823.328 42.5742C823.217 42.7956 823.162 43.0462 823.162 43.3262C823.162 43.6061 823.227 43.8633 823.357 44.0977C823.488 44.3255 823.676 44.5046 823.924 44.6348C824.178 44.765 824.484 44.8301 824.842 44.8301C825.324 44.8301 825.743 44.7324 826.102 44.5371C826.466 44.3353 826.753 44.0911 826.961 43.8047C827.169 43.5117 827.28 43.235 827.293 42.9746L828.055 44.0195C827.977 44.2865 827.843 44.5729 827.654 44.8789C827.465 45.1849 827.218 45.4779 826.912 45.7578C826.613 46.0312 826.251 46.2559 825.828 46.4316C825.411 46.6074 824.93 46.6953 824.383 46.6953C823.693 46.6953 823.077 46.5586 822.537 46.2852C821.997 46.0052 821.574 45.6309 821.268 45.1621C820.962 44.6868 820.809 44.1497 820.809 43.5508C820.809 42.9909 820.913 42.4961 821.121 42.0664C821.336 41.6302 821.648 41.2656 822.059 40.9727C822.475 40.6797 822.983 40.4583 823.582 40.3086C824.181 40.1523 824.865 40.0742 825.633 40.0742H827.479ZM836.277 44.8203C836.661 44.8203 837.007 44.7454 837.312 44.5957C837.625 44.4395 837.876 44.2246 838.064 43.9512C838.26 43.6777 838.367 43.362 838.387 43.0039H840.604C840.59 43.6875 840.389 44.3092 839.998 44.8691C839.607 45.429 839.09 45.875 838.445 46.207C837.801 46.5326 837.088 46.6953 836.307 46.6953C835.499 46.6953 834.796 46.5586 834.197 46.2852C833.598 46.0052 833.1 45.6211 832.703 45.1328C832.306 44.6445 832.007 44.0814 831.805 43.4434C831.609 42.8053 831.512 42.1217 831.512 41.3926V41.0508C831.512 40.3216 831.609 39.638 831.805 39C832.007 38.3555 832.306 37.7891 832.703 37.3008C833.1 36.8125 833.598 36.4316 834.197 36.1582C834.796 35.8783 835.496 35.7383 836.297 35.7383C837.143 35.7383 837.885 35.9076 838.523 36.2461C839.161 36.5781 839.663 37.0436 840.027 37.6426C840.398 38.235 840.59 38.9251 840.604 39.7129H838.387C838.367 39.3223 838.27 38.9707 838.094 38.6582C837.924 38.3392 837.684 38.0853 837.371 37.8965C837.065 37.7077 836.697 37.6133 836.268 37.6133C835.792 37.6133 835.398 37.7109 835.086 37.9062C834.773 38.0951 834.529 38.3555 834.354 38.6875C834.178 39.013 834.051 39.3809 833.973 39.791C833.901 40.1947 833.865 40.6146 833.865 41.0508V41.3926C833.865 41.8288 833.901 42.252 833.973 42.6621C834.044 43.0723 834.168 43.4401 834.344 43.7656C834.526 44.0846 834.773 44.3418 835.086 44.5371C835.398 44.7259 835.796 44.8203 836.277 44.8203ZM847.254 35.9336V37.6523H841.297V35.9336H847.254ZM843.016 33.3457H845.369V43.5801C845.369 43.9056 845.415 44.1562 845.506 44.332C845.604 44.5013 845.737 44.6152 845.906 44.6738C846.076 44.7324 846.274 44.7617 846.502 44.7617C846.665 44.7617 846.821 44.752 846.971 44.7324C847.12 44.7129 847.241 44.6934 847.332 44.6738L847.342 46.4707C847.146 46.5293 846.919 46.5814 846.658 46.627C846.404 46.6725 846.111 46.6953 845.779 46.6953C845.239 46.6953 844.76 46.6009 844.344 46.4121C843.927 46.2168 843.602 45.901 843.367 45.4648C843.133 45.0286 843.016 44.4492 843.016 43.7266V33.3457ZM848.387 41.334V41.1094C848.387 40.3477 848.497 39.6413 848.719 38.9902C848.94 38.3327 849.259 37.763 849.676 37.2812C850.099 36.793 850.613 36.4154 851.219 36.1484C851.831 35.875 852.521 35.7383 853.289 35.7383C854.064 35.7383 854.754 35.875 855.359 36.1484C855.971 36.4154 856.489 36.793 856.912 37.2812C857.335 37.763 857.658 38.3327 857.879 38.9902C858.1 39.6413 858.211 40.3477 858.211 41.1094V41.334C858.211 42.0957 858.1 42.8021 857.879 43.4531C857.658 44.1042 857.335 44.6738 856.912 45.1621C856.489 45.6439 855.975 46.0215 855.369 46.2949C854.764 46.5618 854.077 46.6953 853.309 46.6953C852.534 46.6953 851.84 46.5618 851.229 46.2949C850.623 46.0215 850.109 45.6439 849.686 45.1621C849.262 44.6738 848.94 44.1042 848.719 43.4531C848.497 42.8021 848.387 42.0957 848.387 41.334ZM850.74 41.1094V41.334C850.74 41.8092 850.789 42.2585 850.887 42.6816C850.984 43.1048 851.137 43.4759 851.346 43.7949C851.554 44.1139 851.821 44.3646 852.146 44.5469C852.472 44.7292 852.859 44.8203 853.309 44.8203C853.745 44.8203 854.122 44.7292 854.441 44.5469C854.767 44.3646 855.034 44.1139 855.242 43.7949C855.451 43.4759 855.604 43.1048 855.701 42.6816C855.805 42.2585 855.857 41.8092 855.857 41.334V41.1094C855.857 40.6406 855.805 40.1979 855.701 39.7812C855.604 39.3581 855.447 38.9837 855.232 38.6582C855.024 38.3327 854.757 38.0788 854.432 37.8965C854.113 37.7077 853.732 37.6133 853.289 37.6133C852.846 37.6133 852.462 37.7077 852.137 37.8965C851.818 38.0788 851.554 38.3327 851.346 38.6582C851.137 38.9837 850.984 39.3581 850.887 39.7812C850.789 40.1979 850.74 40.6406 850.74 41.1094ZM862.547 37.9453V46.5H860.193V35.9336H862.439L862.547 37.9453ZM865.779 35.8652L865.76 38.0527C865.617 38.0267 865.46 38.0072 865.291 37.9941C865.128 37.9811 864.965 37.9746 864.803 37.9746C864.399 37.9746 864.044 38.0332 863.738 38.1504C863.432 38.2611 863.175 38.4238 862.967 38.6387C862.765 38.847 862.609 39.1009 862.498 39.4004C862.387 39.6999 862.322 40.0352 862.303 40.4062L861.766 40.4453C861.766 39.7812 861.831 39.166 861.961 38.5996C862.091 38.0332 862.286 37.5352 862.547 37.1055C862.814 36.6758 863.146 36.3405 863.543 36.0996C863.947 35.8587 864.412 35.7383 864.939 35.7383C865.083 35.7383 865.236 35.7513 865.398 35.7773C865.568 35.8034 865.695 35.8327 865.779 35.8652Z" fill="#16A34A"/>
<g clip-path="url(#clip0_276_318)">
<path d="M72.346 19.0776C71.916 19.0352 71.8671 19.7857 72.297 19.8529C74.8067 20.2069 80.2456 22.7736 81.5214 23.917C84.1395 26.2641 85.23 30.0485 85.23 32.5797C85.23 35.1109 84.4331 46.7014 86.0689 50.3973C90.2634 59.8884 96.7998 58.621 108.464 58.621C108.464 58.621 98.1036 52.8293 97.6282 38.906C97.3521 30.5866 95.9784 25.9703 92.9374 23.5488C91.368 22.3027 89.0435 21.2548 83.3111 21.8637C79.6479 20.8654 76.2538 19.4706 72.346 19.0776Z" fill="#16A34A"/>
<path d="M118.646 20.5646C119.345 21.2726 117.786 31.054 111.306 39.7981C108.691 43.3383 105.619 46.2589 102.518 48.0042C101.097 44.9072 100.318 41.5481 100.229 38.1343C100.163 36.127 100.03 34.3357 99.827 32.7391C100.153 32.2671 100.493 31.8139 100.848 31.3797C107.859 22.6391 117.958 19.8671 118.646 20.5646Z" fill="#16A34A"/>
</g>
<path d="M232.097 57.92V22.08H238.753V57.92H232.097Z" fill="#0F172A"/>
<path d="M217.347 57.92V22.08H224.003V57.92H217.347Z" fill="#0F172A"/>
<path d="M170.047 57.92V22.08H175.525L191.193 48.2432H188.325L203.737 22.08H209.215L209.266 57.92H202.969L202.917 31.9616H204.249L191.141 53.824H188.172L174.86 31.9616H176.396V57.92H170.047Z" fill="#0F172A"/>
<path d="M122.747 57.92V22.08H128.225L143.893 48.2432H141.025L156.437 22.08H161.915L161.966 57.92H155.669L155.617 31.9616H156.949L143.841 53.824H140.872L127.56 31.9616H129.096V57.92H122.747Z" fill="#0F172A"/>
<path d="M66.4374 22.08H73.0934V57.92H66.4374V22.08ZM47.903 57.92H41.247V22.08H47.903V57.92ZM66.9494 42.56H47.3398V36.8768H66.9494V42.56Z" fill="#0F172A"/>
<defs>
<clipPath id="clip0_276_318">
<rect width="46.8" height="39.6" fill="white" transform="translate(72 19.0777)"/>
</clipPath>
</defs>
</svg>
